<?xml version="1.0" encoding="utf-8"?><!DOCTYPE svg PUBLIC "-//W3C//DTD SVG 1.1//EN" "http://www.w3.org/Graphics/SVG/1.1/DTD/svg11.dtd"><svg xmlns="http://www.w3.org/2000/svg" xmlns:xlink="http://www.w3.org/1999/xlink"><symbol fill="none" viewBox="0 0 53 102" id="arrow-left" xmlns="http://www.w3.org/2000/svg"><path d="M51 2L2 51l49 49" stroke="#E7E3E0" stroke-width="4" stroke-linecap="round" stroke-linejoin="round"/></symbol><symbol fill="none" viewBox="0 0 7 12" id="arrow-right-icon" xmlns="http://www.w3.org/2000/svg"><path fill-rule="evenodd" clip-rule="evenodd" d="M5.09 6.163l-4.006 4.052a.647.647 0 000 .906.647.647 0 00.9 0l4.453-4.53a.647.647 0 000-.913l-4.453-4.53A.647.647 0 001.537.96a.647.647 0 00-.453 1.1l4.007 4.103z" fill="#000"/></symbol><symbol fill="none" viewBox="0 0 7 12" id="arrow-right-icon-accent" xmlns="http://www.w3.org/2000/svg"><path fill-rule="evenodd" clip-rule="evenodd" d="M5.09 6.163l-4.006 4.052a.647.647 0 000 .906.647.647 0 00.9 0l4.453-4.53a.647.647 0 000-.913l-4.453-4.53A.647.647 0 001.537.96a.647.647 0 00-.453 1.1l4.007 4.103z" fill="#DEBCB1"/></symbol><symbol viewBox="0 0 24 24" id="cd-icon-close" xmlns="http://www.w3.org/2000/svg"><path fill="#e4dcca" d="M19.7 4.3c-.4-.4-1-.4-1.4 0L12 10.6 5.7 4.3c-.4-.4-1-.4-1.4 0s-.4 1 0 1.4l6.3 6.3-6.3 6.3c-.4.4-.4 1 0 1.4.2.2.4.3.7.3s.5-.1.7-.3l6.3-6.3 6.3 6.3c.2.2.5.3.7.3s.5-.1.7-.3c.4-.4.4-1 0-1.4L13.4 12l6.3-6.3c.4-.4.4-1 0-1.4z"/></symbol><symbol id="ink-separation" xml:space="preserve" viewBox="0 0 130 18" xmlns="http://www.w3.org/2000/svg"><style>.est0{fill:#e4dcc9}</style><path class="est0" d="M113.5 2.7c-.4 0-.7-.1-1.1-.1.2 0 .4.1.5.2.3.1.4 0 .6-.1zM111.4 2.5h-.4.4zM109.6 2.6h1c-.4 0-.7-.1-1 0zM111.1 2.8c-.1-.1-.2-.2 0-.2-.2 0-.4 0-.6.1.2 0 .4 0 .6.1zM111.1 2.8c.1.1.3.2.3.2-.1-.1-.2-.1-.3-.2zM110.5 4.8c-.2.1-.1-.5-.5-.4-.9.1-1.6.4-2.5.4-.4.1-.9-.5-1.3-.4-.9.1-3.1.9-1.8.9 2-.1 3.3-.2 5.1-.2 1.5-.2 2.9-.4 4.3-.6.4 0 .8.1 1.2.1-.5-.1-1-.2-1.6-.3-.8-.3-1.7.4-2.9.5zM105.6 3c-2.5 0-4.9-.1-7.1-.1-.2.1-.3.2-.5.2-.3-.1-.5-.1-.7-.2h-1c-.1 0-.2 0-.4.1s-.1.2 0 .2c.1.1.3.1.4.2-.1 0-.2-.1-.4-.2s-.3-.1-.5-.2c-.3 0-.6.1-1 0 .4-.1.7-.1 1 0h.6c.1 0 .1 0 .2-.1h-2.3c-.2 0-.3 0-.5.1-.6.1-1.1.2-1.4-.1h-.4l.1.1c-.1 0-.1 0-.2-.1h-1.7c-.4.1-.8.3-1.1.4 0 0-.3-.2-.4-.3-.3 0-.5.1-.8.2.3.2.6.3.9.5.4.3.8-.6 1.3-.1-.5-.5-.9.4-1.3.1-.3-.1-.6-.3-.9-.5-.5.1-1.3 0-1.8-.2.7-.3 1.3-.1 1.8.2.3-.1.5-.2.7-.3.1.1.4.3.4.3.4-.1.8-.2 1.1-.4h-3.4c-7.5 0-14.5.5-22.3 1-4.2.2-8.3.5-12.3.7-4 .2-7.8.9-11.6 1.5s-7.6 1.3-11.8 1.6c-.8.1-1.7.2-2.8.5-1 .3-2.1.5-3.2.9-2.2.7-4.3 1.6-5.7 2.3-1.8 1.3-1.8 2.3-1.4 3 .4.7 1.2 1 1.3 1 1.5.4 2.6.3 3.9-.1.7-.2 1.4-.4 2.3-.6.9-.2 1.9-.4 3.2-.4-1.7.1-1.2-.4.1-.8.7-.2 1.6-.5 2.5-.6.9-.1 1.9-.1 2.8 0 2.5.5 5.2.1 8-.6 2.8-.6 5.8-1.5 8.6-1.6 1.4-.1 2.9-.4 4.6-.6 8.8-.4 16.8-2.2 26-2.6 2.4-.2 4.6-.8 6.6-1.2 1.5-.2 3.1.1 4.3 0 1.9-.1 3.6-.3 5.2-.6-1.8.1-3.1.3-5 .5-1.3.1.9-.8 1.8-1 .4-.1 1 .5 1.3.3.8 0 1.6-.3 2.4-.5.4-.1.3.4.5.4 1.2-.1 2.1-.9 2.9-.7.6.1 1.1.2 1.6.3.3 0 .6.1 1 0 .2 0 .4-.1.6-.1-.2-.2-.2-.4-.3-.6.3 0 .8.2 1.1.2-.3 0-.8-.2-1.1-.2.1.2.1.4.3.6 1.6-.3 3.4-.6 5.1-.8v-.1c-1 0-1.9 0-3-.4.4.1.4.3-.1.3-.1-.1-.3-.2-.4-.3.9-.2 1.8-.3 2.6.1 0 0 .4-.1.6-.2.3.1.3.3.3.4h.6c-.6-.4-1.8-.8-1.8-.8z"/><path class="est0" d="M95.4 3c.1 0 .3 0 .5-.1H94c.3.3.8.2 1.4.1z"/></symbol><symbol fill="none" viewBox="0 0 252 147" id="logo-gradient" xmlns="http://www.w3.org/2000/svg"><mask id="fa" maskUnits="userSpaceOnUse" x="0" y="0" width="252" height="147"><path fill="url(#fpaint0_linear)" d="M.186.483h251.395v145.756H.186z"/></mask><g mask="url(#fa)"><path d="M98.715 12.047c0 6.722-3.707 12.9-11.12 18.534-6.92 5.437-13.888 8.155-20.906 8.155-7.216 0-10.824-2.768-10.824-8.303 0-3.954.89-5.93 2.669-5.93.692 0 1.038.444 1.038 1.334 0 .296-.05.74-.149 1.334-.099.593-.148 1.038-.148 1.334 0 3.855 2.52 5.783 7.562 5.783 5.239 0 11.17-2.52 17.792-7.562 6.623-5.041 9.934-10.033 9.934-14.975 0-4.843-4.102-7.265-12.306-7.265-1.68 0-3.312.099-4.893.296-8.5.89-18.188 4.498-29.06 10.824C37.43 21.833 28.385 29.148 21.17 37.55 13.164 47.039 9.16 56.132 9.16 64.83c0 5.437 1.829 9.588 5.486 12.455 3.262 2.57 7.71 3.855 13.345 3.855 17.99 0 35.436-7.018 52.338-21.055.396-.296.791-.444 1.186-.444 1.186 0 1.78.642 1.78 1.927 0 .494-.198.939-.594 1.335-7.215 6.623-15.765 12.257-25.65 16.902-10.873 5.14-20.708 7.71-29.505 7.71-7.216 0-13.048-1.483-17.496-4.448-5.239-3.46-7.858-8.6-7.858-15.42 0-8.105 3.311-16.952 9.934-26.54 7.809-11.367 17.94-20.807 30.395-28.32C55.865 4.586 69.01.484 81.96.484c11.168 0 16.754 3.855 16.754 11.564zm19.812 71.91c0 .594-.149.89-.445.89-.099 0-.544-.247-1.334-.741-.791-.494-2.225-.741-4.3-.741-.989 0-1.928.049-2.817.148-3.756 14.827-8.452 26.343-14.086 34.547-10.675 15.617-22.092 23.426-34.25 23.426-4.744 0-8.698-1.384-11.861-4.152-3.262-2.768-4.893-6.474-4.893-11.12 0-10.576 7.562-20.708 22.685-30.395 12.652-8.204 24.958-13.245 36.919-15.123 1.383-6.128 2.965-15.223 4.744-27.282-1.186 2.867-3.311 6.672-6.375 11.417-3.065 4.646-5.684 8.106-7.858 10.379-2.57 2.669-4.992 4.003-7.266 4.003-3.162 0-4.744-2.768-4.744-8.303 0-3.163.989-6.968 2.965-11.416 2.273-5.14 4.794-7.71 7.562-7.71 1.383 0 2.076.395 2.076 1.186 0 .099-1.236 2.372-3.707 6.82-2.472 4.349-3.707 7.71-3.707 10.082 0 3.163.89 4.745 2.669 4.745 3.064 0 9.737-9.934 20.016-29.802.198-1.483 1.434-2.224 3.707-2.224 1.779 0 2.669.395 2.669 1.186 0 1.285-.642 5.486-1.928 12.603a471.876 471.876 0 01-4.893 24.168h.594c5.238-.198 7.858.938 7.858 3.41zm-14.531-.592c-6.523 1.087-14.282 3.904-23.278 8.451-8.995 4.547-15.864 9.094-20.609 13.641-7.512 7.117-11.268 14.184-11.268 21.202 0 3.855 1.235 6.92 3.706 9.193 2.373 2.372 5.536 3.558 9.49 3.558 6.03 0 12.01-2.57 17.94-7.71 4.745-4.052 8.945-9.242 12.603-15.568 5.238-8.896 9.044-19.819 11.416-32.767zm66.931-20.461c0 .692-.297 1.532-.89 2.52-6.721 11.17-13.69 16.754-20.906 16.754-5.634 0-8.451-3.558-8.451-10.675 0-6.326 1.434-11.91 4.3-16.754-6.92 6.227-13.986 14.827-21.202 25.799-.593.89-1.038 1.334-1.335 1.334-.889 0-1.334-.89-1.334-2.669 0-.494.099-.89.296-1.186 2.076-5.041 4.251-12.207 6.524-21.499.297-1.582.791-3.904 1.483-6.968.296-.693.989-1.384 2.076-2.076 1.087-.692 2.075-1.038 2.965-1.038.692 0 1.038.296 1.038.89 0 .988-2.323 8.5-6.969 22.536 1.186-1.582 4.893-5.782 11.12-12.603 2.076-2.372 5.141-5.733 9.193-10.082.79-.692 1.582-1.038 2.372-1.038 2.273 0 3.41 1.137 3.41 3.41 0 .495-.197 1.088-.593 1.78-5.535 9.093-8.303 16.31-8.303 21.647 0 3.756 1.78 5.634 5.338 5.634 2.768 0 5.733-1.433 8.896-4.3 2.076-1.779 4.399-4.448 6.969-8.006 2.075-2.866 3.262-4.3 3.558-4.3.297 0 .445.297.445.89zm29.405 1.63c0 .198-.1.494-.297.89-2.471 3.855-6.178 7.414-11.12 10.675-5.239 3.46-10.033 5.19-14.382 5.19-6.227 0-9.341-3.904-9.341-11.713 0-5.14 2.224-10.775 6.672-16.903 4.745-6.524 9.637-9.786 14.679-9.786.988 0 1.828.445 2.52 1.335.791.89 1.186 1.828 1.186 2.817 0 3.064-2.323 6.771-6.968 11.12-4.152 3.855-7.958 6.425-11.417 7.71-.692 2.471-1.038 4.547-1.038 6.227 0 4.053 1.829 6.08 5.486 6.08 3.459 0 7.364-1.434 11.713-4.3 3.756-2.472 6.969-5.289 9.638-8.452.692-.989 1.383-1.483 2.075-1.483.396 0 .594.198.594.594zm-14.531-15.716c0-1.186-.593-1.78-1.779-1.78-1.483 0-3.658 2.274-6.524 6.821-2.471 3.855-4.003 6.87-4.596 9.045 2.57-1.087 5.238-3.015 8.006-5.783 3.262-3.163 4.893-5.93 4.893-8.303zm63.774 14.086c0 .692-.296 1.532-.889 2.52-2.571 4.25-6.82 8.5-12.751 12.751-6.327 4.745-11.664 7.117-16.013 7.117-.89 0-2.224-.049-4.003-.148h-3.855c-.396 0-1.879-.346-4.448-1.038-3.065 7.907-7.216 16.21-12.455 24.909-7.413 12.059-13.443 18.089-18.089 18.089-2.471 0-3.706-1.828-3.706-5.486 0-4.844 4.448-13.838 13.344-26.985 6.325-8.699 12.701-17.446 19.126-26.243v-.89c0-3.559-.05-6.672-.148-9.341-3.757 6.128-6.129 9.193-7.117 9.193-.593 0-.889-.346-.889-1.038 0-.396.148-.79.444-1.186 4.349-6.129 6.524-11.614 6.524-16.458 0-.989-.296-1.78-.889-2.372-.495-.692-.742-1.236-.742-1.631 0-.396 1.532-.593 4.597-.593 3.36 0 5.041 3.36 5.041 10.082 0 .989-.099 2.471-.297 4.448-.099 1.878-.148 3.262-.148 4.151 2.767-5.04 5.831-9.686 9.192-13.937 5.14-6.326 9.44-9.49 12.9-9.49 3.163 0 4.744 2.324 4.744 6.97 0 5.831-2.075 12.602-6.227 20.312-4.053 7.71-8.501 13.097-13.344 16.162 8.6-.198 18.138-6.87 28.616-20.017.395-.494.691-.741.889-.741.395 0 .593.297.593.89zm-17.05-13.493c0-3.064-.841-4.596-2.521-4.596-.495 0-.989.099-1.483.296-3.558 1.582-7.315 6.178-11.268 13.79-2.965 5.634-5.338 11.416-7.117 17.347.988 1.483 2.718 3.36 5.19 5.634 4.348-1.878 8.352-6.573 12.009-14.086 3.46-7.116 5.19-13.245 5.19-18.385zm-28.023 26.985c-.099-.099-.198-.148-.297-.148-.395 0-.939.494-1.631 1.483-2.372 3.558-5.93 8.797-10.675 15.716-2.076 2.965-4.695 7.463-7.858 13.492-3.658 7.018-5.486 11.565-5.486 13.641 0 .89.296 1.334.89 1.334 4.348 0 10.328-7.116 17.94-21.35 1.977-3.756 4.102-10.23 6.376-19.423a7.458 7.458 0 01-.149-1.483c0-1.186.297-2.273.89-3.262z" fill="#EDCAB9"/></g><defs><linearGradient id="fpaint0_linear" x1="125.884" y1=".483" x2="126" y2="162.372" gradientUnits="userSpaceOnUse"><stop offset=".423" stop-color="#fff"/><stop offset=".677" stop-color="#fff" stop-opacity="0"/></linearGradient></defs></symbol><symbol fill="none" viewBox="0 0 767 86" id="slogan-gray" xmlns="http://www.w3.org/2000/svg"><path d="M56.6 12.91c0 3.9-2.52 8.34-7.56 13.32-2.64 2.58-6.87 5.97-12.69 10.17h.99c5.34-.12 8.01 1.92 8.01 6.12 0 .9-.15 1.89-.45 2.97h.72c4.98-.06 7.68.54 8.1 1.8-.06.48-.36.72-.9.72-.42 0-.96-.12-1.62-.36-.66-.24-1.11-.36-1.35-.36-.24-.06-.96-.09-2.16-.09-1.14 0-2.25.03-3.33.09-.48 1.2-1.11 2.43-1.89 3.69-6.96 12-15.18 21-24.66 27-4.8 3.12-8.82 4.68-12.06 4.68-3.78 0-5.67-1.98-5.67-5.94 0-2.04.57-4.29 1.71-6.75 3.24-7.14 8.79-12.96 16.65-17.46 7.2-4.08 15-6.39 23.4-6.93.54-1.44.81-2.64.81-3.6 0-2.28-1.62-3.42-4.86-3.42-2.7 0-5.67.66-8.91 1.98-3.54 1.44-5.34 2.16-5.4 2.16-.66 0-.99-.27-.99-.81 0-.66.39-1.38 1.17-2.16.36-.42 1.53-.93 3.51-1.53 2.04-.6 3.33-1.08 3.87-1.44 4.86-3 9.45-6.57 13.77-10.71 5.82-5.58 8.73-10.2 8.73-13.86S50.9 6.7 45.62 6.7c-5.46 0-11.82 1.62-19.08 4.86-6.84 3.18-12.33 6.78-16.47 10.8-.9-.18-1.35-.66-1.35-1.44 0-2.7 3-5.61 9-8.73 4.14-2.16 8.43-3.9 12.87-5.22 5.1-1.5 9.87-2.25 14.31-2.25 7.8 0 11.7 2.73 11.7 8.19zM40.94 47.56c-12.66 1.32-22.8 5.94-30.42 13.86-2.52 2.64-4.38 5.25-5.58 7.83-1.02 2.34-1.53 4.32-1.53 5.94 0 3.06 1.41 4.59 4.23 4.59 2.28 0 5.25-1.14 8.91-3.42 4.26-2.64 8.85-6.96 13.77-12.96 4.5-5.46 8.04-10.74 10.62-15.84zM72.698 29.2c0 .24-.27.45-.81.63s-.9.45-1.08.81c-.3 1.32-.63 2.85-.99 4.59-.72 3.06-1.77 7.65-3.15 13.77h.36c3.18-.12 4.77.57 4.77 2.07 0 .36-.12.54-.36.54-.06 0-.33-.15-.81-.45-.42-.3-1.26-.45-2.52-.45-.6 0-1.2.03-1.8.09-2.22 9-5.07 15.99-8.55 20.97-6.48 9.48-13.38 14.22-20.7 14.22-2.88 0-5.28-.84-7.2-2.52-1.98-1.68-2.97-3.93-2.97-6.75 0-6.42 4.56-12.57 13.68-18.45 7.74-4.98 15.24-8.04 22.5-9.18.42-2.28 1.11-5.73 2.07-10.35-4.02 7.14-7.59 10.71-10.71 10.71-1.86 0-2.79-1.02-2.79-3.06 0-3.06 1.5-6.81 4.5-11.25s5.91-7.14 8.73-8.1c1.08-.42 2.07-.63 2.97-.63.84 0 1.86.3 3.06.9 1.2.54 1.8 1.17 1.8 1.89zm-4.23.27c-.24-.06-.51-.09-.81-.09-2.4 0-4.89 1.53-7.47 4.59-3.66 4.44-5.49 8.07-5.49 10.89 0 1.26.42 1.89 1.26 1.89 1.32 0 3.03-1.38 5.13-4.14 2.94-3.72 5.4-8.1 7.38-13.14zm-5.49 21.24c-3.96.66-8.67 2.37-14.13 5.13-5.46 2.76-9.66 5.52-12.6 8.28-4.5 4.32-6.75 8.61-6.75 12.87 0 2.34.75 4.2 2.25 5.58 1.44 1.44 3.33 2.16 5.67 2.16 3.72 0 7.38-1.56 10.98-4.68 2.88-2.46 5.43-5.61 7.65-9.45 3.18-5.4 5.49-12.03 6.93-19.89zm33.995-11.43c0 .12-.06.3-.18.54-1.5 2.34-3.75 4.5-6.75 6.48-3.18 2.1-6.09 3.15-8.73 3.15-3.78 0-5.67-2.37-5.67-7.11 0-3.12 1.35-6.54 4.05-10.26 2.88-3.96 5.85-5.94 8.91-5.94.6 0 1.11.27 1.53.81.48.54.72 1.11.72 1.71 0 1.86-1.41 4.11-4.23 6.75-2.52 2.34-4.83 3.9-6.93 4.68-.42 1.5-.63 2.76-.63 3.78 0 2.46 1.11 3.69 3.33 3.69 2.1 0 4.47-.87 7.11-2.61 2.28-1.5 4.23-3.21 5.85-5.13.42-.6.84-.9 1.26-.9.24 0 .36.12.36.36zm-8.82-9.54c0-.72-.36-1.08-1.08-1.08-.9 0-2.22 1.38-3.96 4.14-1.5 2.34-2.43 4.17-2.79 5.49 1.56-.66 3.18-1.83 4.86-3.51 1.98-1.92 2.97-3.6 2.97-5.04zm29.441 8.64c0 .24-.18.57-.54.99-2.1 3.06-5.01 5.85-8.73 8.37-2.16 1.38-4.44 2.07-6.84 2.07-4.44 0-6.66-2.37-6.66-7.11 0-2.94 1.62-6.18 4.86-9.72 3.3-3.54 6.39-5.31 9.27-5.31 1.92 0 2.88.75 2.88 2.25 0 .6-.45 1.65-1.35 3.15-.84 1.44-1.53 2.16-2.07 2.16-.24 0-.36-.15-.36-.45 0-.24.09-.63.27-1.17.24-.54.36-.96.36-1.26 0-1.26-.78-1.89-2.34-1.89-2.16 0-4.11 1.41-5.85 4.23-1.62 2.58-2.43 5.01-2.43 7.29 0 3.72 1.62 5.58 4.86 5.58 4.08 0 8.34-2.79 12.78-8.37.6-.72 1.11-1.08 1.53-1.08.24 0 .36.09.36.27zm3.575-3.96a74.272 74.272 0 00-2.79 6.3c-.84 2.16-1.26 3.81-1.26 4.95 0 2.1.99 3.15 2.97 3.15 1.26 0 2.67-.51 4.23-1.53 1.62-1.08 3.03-2.31 4.23-3.69-1.56.12-2.88-.15-3.96-.81-1.02-.66-1.56-1.95-1.62-3.87-.12-1.08.09-2.1.63-3.06.54-1.02 1.23-1.86 2.07-2.52.9-.72 1.86-1.23 2.88-1.53 1.08-.3 2.04-.3 2.88 0 .9.24 1.62.84 2.16 1.8.54.96.75 2.34.63 4.14-.06.84-.24 1.68-.54 2.52 1.38-.66 2.7-1.44 3.96-2.34 1.26-.96 2.34-1.95 3.24-2.97l1.17.27c-.24.6-.69 1.26-1.35 1.98-.6.66-1.35 1.32-2.25 1.98-.84.66-1.77 1.29-2.79 1.89-1.02.6-2.07 1.11-3.15 1.53-.72 1.08-1.59 2.07-2.61 2.97-1.02.84-2.13 1.59-3.33 2.25-1.2.66-2.46 1.2-3.78 1.62-1.26.42-2.49.69-3.69.81-3.48.36-5.22-1.38-5.22-5.22 0-1.62.3-3.42.9-5.4.6-1.98 1.35-3.96 2.25-5.94.96-2.04 1.98-3.96 3.06-5.76 1.08-1.86 2.1-3.42 3.06-4.68.24-.3.57-.42.99-.36.42.06.84.24 1.26.54.42.24.75.57.99.99.3.36.45.69.45.99 0 .36-.12.69-.36.99-.18.3-.54.84-1.08 1.62l-1.62 2.43c-.54.84-1.08 1.65-1.62 2.43-.48.78-.81 1.29-.99 1.53zm9.54 6.12c.66-1.32.93-2.37.81-3.15-.06-.78-.36-1.35-.9-1.71-.54-.42-1.2-.6-1.98-.54-.78.06-1.5.3-2.16.72-.66.36-1.17.9-1.53 1.62-.36.66-.36 1.47 0 2.43.3.96.9 1.56 1.8 1.8.96.24 2.07.21 3.33-.09.12-.18.21-.36.27-.54l.36-.54zm53.196-2.25c0 .42-.18.93-.54 1.53-1.56 2.58-4.14 5.16-7.74 7.74-3.84 2.88-7.08 4.32-9.72 4.32-.54 0-1.35-.03-2.43-.09h-2.34c-.24 0-1.14-.21-2.7-.63-1.86 4.8-4.38 9.84-7.56 15.12-4.5 7.32-8.16 10.98-10.98 10.98-1.5 0-2.25-1.11-2.25-3.33 0-2.94 2.7-8.4 8.1-16.38 3.84-5.28 7.71-10.59 11.61-15.93v-.54c0-2.16-.03-4.05-.09-5.67-2.28 3.72-3.72 5.58-4.32 5.58-.36 0-.54-.21-.54-.63 0-.24.09-.48.27-.72 2.64-3.72 3.96-7.05 3.96-9.99 0-.6-.18-1.08-.54-1.44-.3-.42-.45-.75-.45-.99s.93-.36 2.79-.36c2.04 0 3.06 2.04 3.06 6.12 0 .6-.06 1.5-.18 2.7-.06 1.14-.09 1.98-.09 2.52 1.68-3.06 3.54-5.88 5.58-8.46 3.12-3.84 5.73-5.76 7.83-5.76 1.92 0 2.88 1.41 2.88 4.23 0 3.54-1.26 7.65-3.78 12.33-2.46 4.68-5.16 7.95-8.1 9.81 5.22-.12 11.01-4.17 17.37-12.15.24-.3.42-.45.54-.45.24 0 .36.18.36.54zm-10.35-8.19c0-1.86-.51-2.79-1.53-2.79-.3 0-.6.06-.9.18-2.16.96-4.44 3.75-6.84 8.37a58.93 58.93 0 00-4.32 10.53c.6.9 1.65 2.04 3.15 3.42 2.64-1.14 5.07-3.99 7.29-8.55 2.1-4.32 3.15-8.04 3.15-11.16zm-17.01 16.38c-.06-.06-.12-.09-.18-.09-.24 0-.57.3-.99.9-1.44 2.16-3.6 5.34-6.48 9.54-1.26 1.8-2.85 4.53-4.77 8.19-2.22 4.26-3.33 7.02-3.33 8.28 0 .54.18.81.54.81 2.64 0 6.27-4.32 10.89-12.96 1.2-2.28 2.49-6.21 3.87-11.79-.06-.3-.09-.6-.09-.9 0-.72.18-1.38.54-1.98zm47.713-7.2c0 .12-.06.24-.18.36-.84 1.44-2.13 2.67-3.87 3.69-1.68 1.02-3.33 1.53-4.95 1.53-1.2 0-2.31-.3-3.33-.9-2.76 4.38-5.61 6.57-8.55 6.57-2.1 0-3.15-1.23-3.15-3.69 0-3.42 1.5-7.44 4.5-12.06-.12-.66-.18-1.32-.18-1.98 0-2.16.72-4.26 2.16-6.3 1.44-2.04 3.21-3.06 5.31-3.06 1.38 0 2.49.81 3.33 2.43.66 1.38.99 2.82.99 4.32 0 3.24-1.26 7.35-3.78 12.33.9.54 1.92.81 3.06.81 1.98 0 3.84-.78 5.58-2.34 1.74-1.56 2.55-2.34 2.43-2.34.42 0 .63.21.63.63zm-10.62-6.84c0-1.32-.21-2.67-.63-4.05-.6-1.92-1.38-2.88-2.34-2.88-1.38 0-2.46.84-3.24 2.52-.6 1.32-.87 2.76-.81 4.32.96-1.14 1.92-1.71 2.88-1.71.9 0 1.56.3 1.98.9v.45c.06.18.09.33.09.45 0 .18-.3.27-.9.27-1.08 0-2.22 1.14-3.42 3.42.78 2.28 2.16 4.14 4.14 5.58 1.5-3.78 2.25-6.87 2.25-9.27zm-2.97 10.53c-1.98-1.32-3.48-2.85-4.5-4.59-1.8 3.78-2.7 6.51-2.7 8.19 0 1.2.45 1.8 1.35 1.8.84 0 1.95-.72 3.33-2.16 1.2-1.14 2.04-2.22 2.52-3.24zm11.657-4.77c-.66.72-1.17 1.08-1.53 1.08-.24 0-.36-.09-.36-.27 0-.18.18-.51.54-.99.66-1.26 1.35-2.49 2.07-3.69.78-1.2 1.62-2.25 2.52-3.15.96-.9 1.98-1.62 3.06-2.16 1.14-.6 2.37-.9 3.69-.9 4.44 0 6.66 2.37 6.66 7.11 0 1.14-.24 2.31-.72 3.51l.36-.36c3.72-2.58 6.12-5.25 7.2-8.01.18-.6.18-1.17 0-1.71-.06-.24-.12-.45-.18-.63s-.03-.3.09-.36c.12-.12.36-.12.72 0 .36.06.93.27 1.71.63 1.62.66 1.83 2.85.63 6.57-.06.3-.18.66-.36 1.08-.18.42-.36.87-.54 1.35-.18.48-.36.93-.54 1.35-.18.42-.3.75-.36.99-.36.96-.66 1.68-.9 2.16-.18.42-.39 1.02-.63 1.8 2.28-1.8 3.87-2.94 4.77-3.42.66-2.22 2.16-4.62 4.5-7.2 3.36-3.54 6.45-5.31 9.27-5.31 1.92 0 2.88.75 2.88 2.25 0 .6-.45 1.65-1.35 3.15-.84 1.44-1.53 2.16-2.07 2.16-.24 0-.36-.15-.36-.45 0-.24.09-.63.27-1.17.24-.54.36-.96.36-1.26 0-1.26-.78-1.89-2.34-1.89-2.16 0-4.11 1.41-5.85 4.23-1.62 2.64-2.43 5.07-2.43 7.29 0 3.72 1.62 5.58 4.86 5.58 4.08 0 8.34-2.79 12.78-8.37.6-.72 1.11-1.08 1.53-1.08.24 0 .36.09.36.27 0 .24-.18.57-.54.99-2.04 3-4.95 5.79-8.73 8.37-2.22 1.38-4.5 2.07-6.84 2.07-4.44 0-6.66-2.37-6.66-7.11v-.72c-3.18 2.34-5.25 4.77-6.21 7.29-.12.3-.03.57.27.81.3.24.51.51.63.81.06.24.12.45.18.63s0 .3-.18.36c-.12.12-.36.12-.72 0-.36-.06-.9-.27-1.62-.63-1.62-.6-1.83-2.79-.63-6.57.12-.54.33-1.17.63-1.89.36-.78.6-1.41.72-1.89.36-.96.63-1.83.81-2.61.24-.78.45-1.56.63-2.34-3.36 2.7-5.34 3.96-5.94 3.78-.24 0-.39-.12-.45-.36-.78 1.8-2.07 3.66-3.87 5.58-3.36 3.54-6.45 5.31-9.27 5.31-1.92 0-2.88-.75-2.88-2.25 0-.54.45-1.59 1.35-3.15.78-1.44 1.47-2.16 2.07-2.16.24 0 .36.15.36.45 0 .24-.12.63-.36 1.17-.18.54-.27.96-.27 1.26 0 1.26.78 1.89 2.34 1.89 2.16 0 4.11-1.41 5.85-4.23 1.62-2.58 2.43-5.01 2.43-7.29 0-3.72-1.62-5.58-4.86-5.58-1.02 0-1.92.18-2.7.54-.72.36-1.41.9-2.07 1.62-.6.66-1.2 1.47-1.8 2.43-.54.9-1.14 1.92-1.8 3.06l-.18.18zm67.951-9c0 .24-.27.45-.81.63s-.9.45-1.08.81c-.3 1.32-.63 2.85-.99 4.59-.72 3.06-1.77 7.65-3.15 13.77h.36c3.18-.12 4.77.57 4.77 2.07 0 .36-.12.54-.36.54-.06 0-.33-.15-.81-.45-.42-.3-1.26-.45-2.52-.45-.6 0-1.2.03-1.8.09-2.22 9-5.07 15.99-8.55 20.97-6.48 9.48-13.38 14.22-20.7 14.22-2.88 0-5.28-.84-7.2-2.52-1.98-1.68-2.97-3.93-2.97-6.75 0-6.42 4.56-12.57 13.68-18.45 7.74-4.98 15.24-8.04 22.5-9.18.42-2.28 1.11-5.73 2.07-10.35-4.02 7.14-7.59 10.71-10.71 10.71-1.86 0-2.79-1.02-2.79-3.06 0-3.06 1.5-6.81 4.5-11.25s5.91-7.14 8.73-8.1c1.08-.42 2.07-.63 2.97-.63.84 0 1.86.3 3.06.9 1.2.54 1.8 1.17 1.8 1.89zm-4.23.27c-.24-.06-.51-.09-.81-.09-2.4 0-4.89 1.53-7.47 4.59-3.66 4.44-5.49 8.07-5.49 10.89 0 1.26.42 1.89 1.26 1.89 1.32 0 3.03-1.38 5.13-4.14 2.94-3.72 5.4-8.1 7.38-13.14zm-5.49 21.24c-3.96.66-8.67 2.37-14.13 5.13-5.46 2.76-9.66 5.52-12.6 8.28-4.5 4.32-6.75 8.61-6.75 12.87 0 2.34.75 4.2 2.25 5.58 1.44 1.44 3.33 2.16 5.67 2.16 3.72 0 7.38-1.56 10.98-4.68 2.88-2.46 5.43-5.61 7.65-9.45 3.18-5.4 5.49-12.03 6.93-19.89zm41.825-11.79c0 .3-.18.72-.54 1.26-2.64 4.26-5.13 6.99-7.47 8.19-1.08.54-2.16.81-3.24.81-3.66 0-5.49-2.58-5.49-7.74 0-.84.06-1.74.18-2.7-4.02 7.14-7.59 10.71-10.71 10.71-1.86 0-2.79-1.02-2.79-3.06 0-3.12 1.5-6.87 4.5-11.25 3-4.44 5.91-7.14 8.73-8.1 1.02-.42 2.01-.63 2.97-.63 2.16 0 3.72.75 4.68 2.25.18.3.27.51.27.63 0 .06-.21.15-.63.27-.42.12-.72.33-.9.63-1.44 2.34-2.16 5.85-2.16 10.53 0 4.32.93 6.48 2.79 6.48 1.32 0 3.18-1.44 5.58-4.32 2.46-2.94 3.78-4.41 3.96-4.41.18 0 .27.15.27.45zm-13.23-9.45c-.24-.06-.51-.09-.81-.09-2.4 0-4.89 1.53-7.47 4.59-3.66 4.44-5.49 8.07-5.49 10.89 0 1.26.42 1.89 1.26 1.89 1.32 0 3.03-1.38 5.13-4.14 2.94-3.72 5.4-8.1 7.38-13.14zm44.288 10.44c0 .12-.06.24-.18.36-.9 1.32-2.25 2.49-4.05 3.51-1.74.96-3.42 1.44-5.04 1.44-1.26 0-2.43-.3-3.51-.9-2.82 4.14-5.76 6.21-8.82 6.21-2.16 0-3.24-1.17-3.24-3.51 0-2.76 1.17-5.97 3.51-9.63-1.74.36-3.54.81-5.4 1.35-1.62.48-3.3 1.02-5.04 1.62-.36.84-.72 1.71-1.08 2.61-.78 2.7-1.53 4.53-2.25 5.49-.66.9-1.41 1.35-2.25 1.35-.42 0-.6-.51-.54-1.53 0-.3.03-.51.09-.63 1.62-2.82 3.36-6.93 5.22-12.33.12-.48.27-1.02.45-1.62.18-.66.42-1.44.72-2.34.3-.42.78-.81 1.44-1.17.72-.42 1.38-.63 1.98-.63.42 0 .6.18.54.54 0 .3-.48 1.5-1.44 3.6-.54 1.32-1.29 3.06-2.25 5.22 1.74-.54 4.26-1.29 7.56-2.25.66-.18 1.41-.39 2.25-.63.36-.06.72-.15 1.08-.27l.09-.09c-.18-.6-.27-1.23-.27-1.89 0-2.04.75-4.02 2.25-5.94 1.5-1.92 3.33-2.88 5.49-2.88 1.44 0 2.61.78 3.51 2.34a8.6 8.6 0 01.99 4.05c0 3.06-1.29 6.93-3.87 11.61.9.54 1.95.81 3.15.81 2.04 0 3.96-.75 5.76-2.25 1.8-1.5 2.64-2.25 2.52-2.25.42 0 .63.21.63.63zm-10.98-6.48c0-1.2-.21-2.46-.63-3.78-.66-1.8-1.47-2.7-2.43-2.7-1.44 0-2.55.78-3.33 2.34a7.873 7.873 0 00-.9 4.05c1.02-1.02 2.01-1.53 2.97-1.53.96 0 1.65.27 2.07.81v.45c.06.18.09.3.09.36 0 .18-.3.27-.9.27-1.14 0-2.34 1.08-3.6 3.24.84 2.16 2.28 3.93 4.32 5.31 1.56-3.6 2.34-6.54 2.34-8.82zm-3.06 9.99c-2.04-1.26-3.6-2.7-4.68-4.32-1.86 3.54-2.79 6.09-2.79 7.65 0 1.14.48 1.71 1.44 1.71.84 0 1.98-.66 3.42-1.98 1.26-1.08 2.13-2.1 2.61-3.06zm47.96-4.32c0 .24-.06.42-.18.54-1.5 2.1-3.18 4.05-5.04 5.85-2.58 2.4-4.74 3.6-6.48 3.6-2.82 0-4.23-3.12-4.23-9.36 0-.96.03-2.04.09-3.24-2.16 1.92-4.59 5.37-7.29 10.35-.9 1.68-1.89 2.52-2.97 2.52-.36 0-.63-.12-.81-.36-.18-.66-.27-1.5-.27-2.52 0-1.74.39-4.92 1.17-9.54.42-2.34.63-3.84.63-4.5 0-.48-.09-.72-.27-.72-1.02.9-2.67 2.85-4.95 5.85-2.46 3.24-5.1 7.05-7.92 11.43-.36.54-.66.81-.9.81-.48 0-.72-.54-.72-1.62 0-.3.03-.54.09-.72 1.38-3.24 2.79-7.8 4.23-13.68.12-.84.36-2.04.72-3.6.12-.42.51-.84 1.17-1.26.72-.42 1.32-.63 1.8-.63.42 0 .63.18.63.54 0 .6-1.41 5.16-4.23 13.68 2.16-2.88 4.38-5.85 6.66-8.91l3.24-4.32c.9-1.08 1.83-1.62 2.79-1.62s1.44.54 1.44 1.62c0 .78-.21 2.34-.63 4.68-.42 2.28-.9 5.64-1.44 10.08 1.68-2.4 4.29-5.91 7.83-10.53.96-1.14 1.92-1.71 2.88-1.71.9 0 1.35.57 1.35 1.71 0 .96-.15 2.4-.45 4.32-.3 1.86-.45 3.27-.45 4.23 0 3.12.81 4.68 2.43 4.68 2.28 0 5.19-2.52 8.73-7.56.36-.6.66-.9.9-.9.3 0 .45.27.45.81zm-9.09-16.74c-7.56-1.8-13.11-1.71-16.65.27-.66.36-1.2.93-1.62 1.71-.18.42-.27.99-.27 1.71s-.09 1.26-.27 1.62l-.36.27c-.6.42-.87 0-.81-1.26.12-1.32.42-2.43.9-3.33.6-1.38 1.62-2.43 3.06-3.15 2.64-1.56 6.12-2.16 10.44-1.8 1.08 0 4.71.51 10.89 1.53 3.78.66 6.27.66 7.47 0 .72-.42 1.23-.96 1.53-1.62.36-.78.42-1.5.18-2.16-.18-.66-.15-1.23.09-1.71l.18-.09c.48-.3.69.3.63 1.8 0 1.5-.18 2.61-.54 3.33-.9 1.74-1.86 2.94-2.88 3.6-1.5.84-3.87.99-7.11.45-.36-.18-1.08-.33-2.16-.45-.48 0-1.38-.24-2.7-.72zm29.325 16.02c0 .24-.18.57-.54.99-2.1 3.06-5.01 5.85-8.73 8.37-2.16 1.38-4.44 2.07-6.84 2.07-4.44 0-6.66-2.37-6.66-7.11 0-2.94 1.62-6.18 4.86-9.72 3.3-3.54 6.39-5.31 9.27-5.31 1.92 0 2.88.75 2.88 2.25 0 .6-.45 1.65-1.35 3.15-.84 1.44-1.53 2.16-2.07 2.16-.24 0-.36-.15-.36-.45 0-.24.09-.63.27-1.17.24-.54.36-.96.36-1.26 0-1.26-.78-1.89-2.34-1.89-2.16 0-4.11 1.41-5.85 4.23-1.62 2.58-2.43 5.01-2.43 7.29 0 3.72 1.62 5.58 4.86 5.58 4.08 0 8.34-2.79 12.78-8.37.6-.72 1.11-1.08 1.53-1.08.24 0 .36.09.36.27zm20.495-3.6c1.32.12 1.98.81 1.98 2.07 0 .12-.12.48-.36 1.08-.66 1.38-1.29 2.58-1.89 3.6-.54 1.02-.81 2.1-.81 3.24 0 2.28 1.08 3.42 3.24 3.42 1.68 0 3.48-.87 5.4-2.61 1.32-1.14 2.73-2.76 4.23-4.86 1.26-1.74 1.98-2.61 2.16-2.61.18 0 .27.18.27.54 0 .42-.18.93-.54 1.53-4.08 6.78-8.31 10.17-12.69 10.17-3.42 0-5.13-2.16-5.13-6.48V42.7c0-.42.03-.81.09-1.17.24-.84.57-1.74.99-2.7-.36.12-.72.21-1.08.27-.36.06-.69.09-.99.09-1.02 1.38-2.04 2.7-3.06 3.96-1.02 1.2-1.68 1.95-1.98 2.25-1.68 1.62-3.33 2.73-4.95 3.33-1.62.54-3.03.6-4.23.18-1.2-.42-2.1-1.32-2.7-2.7-.54-1.38-.6-3.24-.18-5.58.18-1.14.51-1.92.99-2.34.48-.42.99-.63 1.53-.63s1.02.18 1.44.54c.42.3.69.66.81 1.08-.96 2.46-1.44 4.44-1.44 5.94.06 1.5.48 2.4 1.26 2.7.84.3 1.98-.03 3.42-.99 1.44-1.02 3.06-2.79 4.86-5.31.36-.48.9-1.26 1.62-2.34-1.8-.06-3.42-.48-4.86-1.26-1.38-.78-2.31-1.77-2.79-2.97-.48-1.26-.39-2.58.27-3.96.66-1.44 2.13-2.82 4.41-4.14 1.62-.9 3-1.35 4.14-1.35 1.14-.06 2.04.21 2.7.81.72.54 1.2 1.32 1.44 2.34.3.96.42 2.01.36 3.15-.06 1.14-.27 2.25-.63 3.33-.36 1.02-.87 1.89-1.53 2.61h.9c.3 0 .6-.06.9-.18.84-1.5 1.44-2.34 1.8-2.52.36-.24.57-.36.63-.36zm-4.5-5.31c-2.52-.84-4.35-.96-5.49-.36-1.08.54-1.65 1.38-1.71 2.52-.06 1.08.36 2.25 1.26 3.51.96 1.2 2.25 2.01 3.87 2.43.54-.84 1.02-1.71 1.44-2.61.48-.9.81-1.71.99-2.43.24-.78.33-1.44.27-1.98 0-.6-.21-.96-.63-1.08zm84.514-22.05c0 4.08-2.25 7.83-6.75 11.25-4.2 3.3-8.43 4.95-12.69 4.95-4.38 0-6.57-1.68-6.57-5.04 0-2.4.54-3.6 1.62-3.6.42 0 .63.27.63.81 0 .18-.03.45-.09.81-.06.36-.09.63-.09.81 0 2.34 1.53 3.51 4.59 3.51 3.18 0 6.78-1.53 10.8-4.59 4.02-3.06 6.03-6.09 6.03-9.09 0-2.94-2.49-4.41-7.47-4.41-1.02 0-2.01.06-2.97.18-5.16.54-11.04 2.73-17.64 6.57-6.6 3.78-12.09 8.22-16.47 13.32-4.86 5.76-7.29 11.28-7.29 16.56 0 3.3 1.11 5.82 3.33 7.56 1.98 1.56 4.68 2.34 8.1 2.34 10.92 0 21.51-4.26 31.77-12.78.24-.18.48-.27.72-.27.72 0 1.08.39 1.08 1.17 0 .3-.12.57-.36.81-4.38 4.02-9.57 7.44-15.57 10.26-6.6 3.12-12.57 4.68-17.91 4.68-4.38 0-7.92-.9-10.62-2.7-3.18-2.1-4.77-5.22-4.77-9.36 0-4.92 2.01-10.29 6.03-16.11 4.74-6.9 10.89-12.63 18.45-17.19 8.1-4.98 16.08-7.47 23.94-7.47 6.78 0 10.17 2.34 10.17 7.02zm12.026 43.65c0 .36-.09.54-.27.54-.06 0-.33-.15-.81-.45-.48-.3-1.35-.45-2.61-.45-.6 0-1.17.03-1.71.09-2.28 9-5.13 15.99-8.55 20.97-6.48 9.48-13.41 14.22-20.79 14.22-2.88 0-5.28-.84-7.2-2.52-1.98-1.68-2.97-3.93-2.97-6.75 0-6.42 4.59-12.57 13.77-18.45 7.68-4.98 15.15-8.04 22.41-9.18.84-3.72 1.8-9.24 2.88-16.56-.72 1.74-2.01 4.05-3.87 6.93-1.86 2.82-3.45 4.92-4.77 6.3-1.56 1.62-3.03 2.43-4.41 2.43-1.92 0-2.88-1.68-2.88-5.04 0-1.92.6-4.23 1.8-6.93 1.38-3.12 2.91-4.68 4.59-4.68.84 0 1.26.24 1.26.72 0 .06-.75 1.44-2.25 4.14-1.5 2.64-2.25 4.68-2.25 6.12 0 1.92.54 2.88 1.62 2.88 1.86 0 5.91-6.03 12.15-18.09.12-.9.87-1.35 2.25-1.35 1.08 0 1.62.24 1.62.72 0 .78-.39 3.33-1.17 7.65-.9 5.1-1.89 9.99-2.97 14.67h.36c3.18-.12 4.77.57 4.77 2.07zm-8.82-.36c-3.96.66-8.67 2.37-14.13 5.13-5.46 2.76-9.63 5.52-12.51 8.28-4.56 4.32-6.84 8.61-6.84 12.87 0 2.34.75 4.2 2.25 5.58 1.44 1.44 3.36 2.16 5.76 2.16 3.66 0 7.29-1.56 10.89-4.68 2.88-2.46 5.43-5.61 7.65-9.45 3.18-5.4 5.49-12.03 6.93-19.89zm40.627-12.42c0 .42-.18.93-.54 1.53-4.08 6.78-8.31 10.17-12.69 10.17-3.42 0-5.13-2.16-5.13-6.48 0-3.84.87-7.23 2.61-10.17-4.2 3.78-8.49 9-12.87 15.66-.36.54-.63.81-.81.81-.54 0-.81-.54-.81-1.62 0-.3.06-.54.18-.72 1.26-3.06 2.58-7.41 3.96-13.05.18-.96.48-2.37.9-4.23.18-.42.6-.84 1.26-1.26.66-.42 1.26-.63 1.8-.63.42 0 .63.18.63.54 0 .6-1.41 5.16-4.23 13.68.72-.96 2.97-3.51 6.75-7.65 1.26-1.44 3.12-3.48 5.58-6.12.48-.42.96-.63 1.44-.63 1.38 0 2.07.69 2.07 2.07 0 .3-.12.66-.36 1.08-3.36 5.52-5.04 9.9-5.04 13.14 0 2.28 1.08 3.42 3.24 3.42 1.68 0 3.48-.87 5.4-2.61 1.26-1.08 2.67-2.7 4.23-4.86 1.26-1.74 1.98-2.61 2.16-2.61.18 0 .27.18.27.54zm17.849.99c0 .12-.06.3-.18.54-1.5 2.34-3.75 4.5-6.75 6.48-3.18 2.1-6.09 3.15-8.73 3.15-3.78 0-5.67-2.37-5.67-7.11 0-3.12 1.35-6.54 4.05-10.26 2.88-3.96 5.85-5.94 8.91-5.94.6 0 1.11.27 1.53.81.48.54.72 1.11.72 1.71 0 1.86-1.41 4.11-4.23 6.75-2.52 2.34-4.83 3.9-6.93 4.68-.42 1.5-.63 2.76-.63 3.78 0 2.46 1.11 3.69 3.33 3.69 2.1 0 4.47-.87 7.11-2.61 2.28-1.5 4.23-3.21 5.85-5.13.42-.6.84-.9 1.26-.9.24 0 .36.12.36.36zm-8.82-9.54c0-.72-.36-1.08-1.08-1.08-.9 0-2.22 1.38-3.96 4.14-1.5 2.34-2.43 4.17-2.79 5.49 1.56-.66 3.18-1.83 4.86-3.51 1.98-1.92 2.97-3.6 2.97-5.04zm38.711 8.55c0 .42-.18.93-.54 1.53-1.56 2.58-4.14 5.16-7.74 7.74-3.84 2.88-7.08 4.32-9.72 4.32-.54 0-1.35-.03-2.43-.09h-2.34c-.24 0-1.14-.21-2.7-.63-1.86 4.8-4.38 9.84-7.56 15.12-4.5 7.32-8.16 10.98-10.98 10.98-1.5 0-2.25-1.11-2.25-3.33 0-2.94 2.7-8.4 8.1-16.38 3.84-5.28 7.71-10.59 11.61-15.93v-.54c0-2.16-.03-4.05-.09-5.67-2.28 3.72-3.72 5.58-4.32 5.58-.36 0-.54-.21-.54-.63 0-.24.09-.48.27-.72 2.64-3.72 3.96-7.05 3.96-9.99 0-.6-.18-1.08-.54-1.44-.3-.42-.45-.75-.45-.99s.93-.36 2.79-.36c2.04 0 3.06 2.04 3.06 6.12 0 .6-.06 1.5-.18 2.7-.06 1.14-.09 1.98-.09 2.52 1.68-3.06 3.54-5.88 5.58-8.46 3.12-3.84 5.73-5.76 7.83-5.76 1.92 0 2.88 1.41 2.88 4.23 0 3.54-1.26 7.65-3.78 12.33-2.46 4.68-5.16 7.95-8.1 9.81 5.22-.12 11.01-4.17 17.37-12.15.24-.3.42-.45.54-.45.24 0 .36.18.36.54zm-10.35-8.19c0-1.86-.51-2.79-1.53-2.79-.3 0-.6.06-.9.18-2.16.96-4.44 3.75-6.84 8.37a58.93 58.93 0 00-4.32 10.53c.6.9 1.65 2.04 3.15 3.42 2.64-1.14 5.07-3.99 7.29-8.55 2.1-4.32 3.15-8.04 3.15-11.16zm-17.01 16.38c-.06-.06-.12-.09-.18-.09-.24 0-.57.3-.99.9-1.44 2.16-3.6 5.34-6.48 9.54-1.26 1.8-2.85 4.53-4.77 8.19-2.22 4.26-3.33 7.02-3.33 8.28 0 .54.18.81.54.81 2.64 0 6.27-4.32 10.89-12.96 1.2-2.28 2.49-6.21 3.87-11.79-.06-.3-.09-.6-.09-.9 0-.72.18-1.38.54-1.98zm60.805-8.1c0 .24-.18.57-.54.99-2.1 3.06-5.01 5.85-8.73 8.37-2.16 1.38-4.44 2.07-6.84 2.07-4.44 0-6.66-2.37-6.66-7.11 0-2.94 1.62-6.18 4.86-9.72 3.3-3.54 6.39-5.31 9.27-5.31 1.92 0 2.88.75 2.88 2.25 0 .6-.45 1.65-1.35 3.15-.84 1.44-1.53 2.16-2.07 2.16-.24 0-.36-.15-.36-.45 0-.24.09-.63.27-1.17.24-.54.36-.96.36-1.26 0-1.26-.78-1.89-2.34-1.89-2.16 0-4.11 1.41-5.85 4.23-1.62 2.58-2.43 5.01-2.43 7.29 0 3.72 1.62 5.58 4.86 5.58 4.08 0 8.34-2.79 12.78-8.37.6-.72 1.11-1.08 1.53-1.08.24 0 .36.09.36.27zm17.436.9c0 .12-.06.3-.18.54-1.5 2.34-3.75 4.5-6.75 6.48-3.18 2.1-6.09 3.15-8.73 3.15-3.78 0-5.67-2.37-5.67-7.11 0-3.12 1.35-6.54 4.05-10.26 2.88-3.96 5.85-5.94 8.91-5.94.6 0 1.11.27 1.53.81.48.54.72 1.11.72 1.71 0 1.86-1.41 4.11-4.23 6.75-2.52 2.34-4.83 3.9-6.93 4.68-.42 1.5-.63 2.76-.63 3.78 0 2.46 1.11 3.69 3.33 3.69 2.1 0 4.47-.87 7.11-2.61 2.28-1.5 4.23-3.21 5.85-5.13.42-.6.84-.9 1.26-.9.24 0 .36.12.36.36zm-8.82-9.54c0-.72-.36-1.08-1.08-1.08-.9 0-2.22 1.38-3.96 4.14-1.5 2.34-2.43 4.17-2.79 5.49 1.56-.66 3.18-1.83 4.86-3.51 1.98-1.92 2.97-3.6 2.97-5.04zm25.031 3.42c-1.2 2.52-2.49 5.04-3.87 7.56-1.38 2.46-2.67 4.29-3.87 5.49-1.68 1.62-3.27 2.67-4.77 3.15-1.5.48-2.76.45-3.78-.09-1.02-.48-1.77-1.44-2.25-2.88-.42-1.5-.42-3.42 0-5.76.18-1.14.51-1.92.99-2.34.48-.42.99-.63 1.53-.63s1.02.18 1.44.54c.42.3.69.66.81 1.08-.96 2.46-1.44 4.44-1.44 5.94.06 1.5.48 2.4 1.26 2.7.84.3 1.98-.03 3.42-.99 1.44-1.02 3.06-2.79 4.86-5.31.66-.9 1.41-2.16 2.25-3.78.9-1.62 1.8-3.96 2.7-7.02 2.22-1.14 3.81-1.68 4.77-1.62.96 0 1.47.39 1.53 1.17.12.72-.09 1.74-.63 3.06a178.9 178.9 0 01-1.8 4.05c-.66 1.38-1.29 2.73-1.89 4.05-.54 1.26-.81 2.28-.81 3.06.18-.24.51-.66.99-1.26.48-.66 1.08-1.41 1.8-2.25.72-.9 1.5-1.86 2.34-2.88.9-1.02 1.83-2.04 2.79-3.06 1.2-1.38 3.06-3.42 5.58-6.12.24-.24.51-.45.81-.63.3-.18.57-.27.81-.27 1.38 0 2.07.69 2.07 2.07 0 .3-.12.66-.36 1.08-3.36 5.52-5.04 9.9-5.04 13.14 0 2.28 1.08 3.42 3.24 3.42 1.68 0 3.48-.87 5.4-2.61 1.32-1.14 2.73-2.76 4.23-4.86 1.26-1.74 1.98-2.61 2.16-2.61.18 0 .27.18.27.54 0 .42-.18.93-.54 1.53-4.08 6.78-8.31 10.17-12.69 10.17-3.42 0-5.13-2.16-5.13-6.48 0-1.92.18-3.66.54-5.22a19.63 19.63 0 011.89-4.68c-1.2 1.14-2.31 2.28-3.33 3.42-.96 1.14-2.07 2.49-3.33 4.05-.54.72-1.08 1.47-1.62 2.25s-1.08 1.47-1.62 2.07c-.54.6-1.08 1.05-1.62 1.35-.54.3-1.11.27-1.71-.09-.66-.42-.87-1.32-.63-2.7.3-1.38.72-2.85 1.26-4.41.6-1.56 1.17-2.97 1.71-4.23.54-1.26.72-1.98.54-2.16 0-.3-.21-.45-.63-.45-.42 0-.63.15-.63.45zm31.276 1.26a74.272 74.272 0 00-2.79 6.3c-.84 2.16-1.26 3.81-1.26 4.95 0 2.1.99 3.15 2.97 3.15 1.26 0 2.67-.51 4.23-1.53 1.62-1.08 3.03-2.31 4.23-3.69-1.56.12-2.88-.15-3.96-.81-1.02-.66-1.56-1.95-1.62-3.87-.12-1.08.09-2.1.63-3.06.54-1.02 1.23-1.86 2.07-2.52.9-.72 1.86-1.23 2.88-1.53 1.08-.3 2.04-.3 2.88 0 .9.24 1.62.84 2.16 1.8.54.96.75 2.34.63 4.14-.06.84-.24 1.68-.54 2.52 1.38-.66 2.7-1.44 3.96-2.34 1.26-.96 2.34-1.95 3.24-2.97l1.17.27c-.24.6-.69 1.26-1.35 1.98-.6.66-1.35 1.32-2.25 1.98-.84.66-1.77 1.29-2.79 1.89-1.02.6-2.07 1.11-3.15 1.53-.72 1.08-1.59 2.07-2.61 2.97-1.02.84-2.13 1.59-3.33 2.25-1.2.66-2.46 1.2-3.78 1.62-1.26.42-2.49.69-3.69.81-3.48.36-5.22-1.38-5.22-5.22 0-1.62.3-3.42.9-5.4.6-1.98 1.35-3.96 2.25-5.94.96-2.04 1.98-3.96 3.06-5.76 1.08-1.86 2.1-3.42 3.06-4.68.24-.3.57-.42.99-.36.42.06.84.24 1.26.54.42.24.75.57.99.99.3.36.45.69.45.99 0 .36-.12.69-.36.99-.18.3-.54.84-1.08 1.62l-1.62 2.43c-.54.84-1.08 1.65-1.62 2.43-.48.78-.81 1.29-.99 1.53zm9.54 6.12c.66-1.32.93-2.37.81-3.15-.06-.78-.36-1.35-.9-1.71-.54-.42-1.2-.6-1.98-.54-.78.06-1.5.3-2.16.72-.66.36-1.17.9-1.53 1.62-.36.66-.36 1.47 0 2.43.3.96.9 1.56 1.8 1.8.96.24 2.07.21 3.33-.09.12-.18.21-.36.27-.54l.36-.54zm36.955-2.25c0 .42-.18.93-.54 1.53-1.68 2.76-3.63 5.16-5.85 7.2-2.88 2.64-5.58 3.96-8.1 3.96-3.36 0-5.04-2.1-5.04-6.3 0-.96.45-2.85 1.35-5.67-2.1 3.06-3.45 4.95-4.05 5.67-1.98 2.34-3.75 3.51-5.31 3.51-1.98 0-2.97-1.68-2.97-5.04 0-1.92.63-4.23 1.89-6.93 1.38-3.12 2.88-4.68 4.5-4.68.9 0 1.35.24 1.35.72 0 .06-.78 1.44-2.34 4.14-1.5 2.64-2.25 4.68-2.25 6.12 0 1.92.57 2.88 1.71 2.88 1.92 0 5.37-4.38 10.35-13.14.42-.84 1.05-2.01 1.89-3.51.42-.48.87-.72 1.35-.72.54 0 1.02.24 1.44.72.48.42.72.93.72 1.53 0-.06-1.08 1.95-3.24 6.03-2.1 4.08-3.15 7.23-3.15 9.45 0 2.1.99 3.15 2.97 3.15 1.68 0 3.6-.96 5.76-2.88 1.44-1.26 3.06-3.06 4.86-5.4 1.5-1.92 2.31-2.88 2.43-2.88.18 0 .27.18.27.54zm8.371 9.99c0 1.44-.75 2.16-2.25 2.16-1.62 0-2.43-.72-2.43-2.16 0-1.44.81-2.16 2.43-2.16 1.5 0 2.25.72 2.25 2.16zm16.611 0c0 1.44-.75 2.16-2.25 2.16-1.62 0-2.43-.72-2.43-2.16 0-1.44.81-2.16 2.43-2.16 1.5 0 2.25.72 2.25 2.16zm16.612 0c0 1.44-.75 2.16-2.25 2.16-1.62 0-2.43-.72-2.43-2.16 0-1.44.81-2.16 2.43-2.16 1.5 0 2.25.72 2.25 2.16z" fill="#737373"/></symbol></svg>