<svg width="7" height="12" viewBox="0 0 7 12" fill="none" xmlns="http://www.w3.org/2000/svg">
<path fill-rule="evenodd" clip-rule="evenodd" d="M5.09055 6.16335L1.08418 10.215C0.965585 10.336 0.899158 10.4987 0.899158 10.6681C0.899158 10.8375 0.965585 11.0002 1.08418 11.1211C1.20486 11.2378 1.36614 11.303 1.53399 11.303C1.70184 11.303 1.86313 11.2378 1.98382 11.1211L6.43679 6.59051C6.55734 6.46924 6.62501 6.30522 6.62501 6.13423C6.62501 5.96324 6.55734 5.79919 6.43679 5.67792L1.98382 1.14729C1.86487 1.02927 1.70478 0.962001 1.53723 0.959604C1.41055 0.961383 1.28717 1.00028 1.1824 1.07152C1.07763 1.14275 0.996086 1.24318 0.947848 1.36033C0.899609 1.47748 0.886796 1.60621 0.91103 1.73056C0.935264 1.85492 0.995478 1.9694 1.08418 2.05987L5.09055 6.16335Z" fill="#DEBCB1"/>
</svg>
