<svg width="252" height="147" viewBox="0 0 252 147" fill="none" xmlns="http://www.w3.org/2000/svg">
<mask id="mask0" mask-type="alpha" maskUnits="userSpaceOnUse" x="0" y="0" width="252" height="147">
<rect x="0.185898" y="0.482605" width="251.395" height="145.756" fill="url(#paint0_linear)"/>
</mask>
<g mask="url(#mask0)">
<path d="M98.7145 12.0475C98.7145 18.769 95.0078 24.9469 87.5944 30.5811C80.6751 36.0176 73.7065 38.7359 66.6885 38.7359C59.4728 38.7359 55.8649 35.9682 55.8649 30.4328C55.8649 26.479 56.7546 24.5021 58.5338 24.5021C59.2257 24.5021 59.5717 24.9469 59.5717 25.8365C59.5717 26.1331 59.5223 26.5779 59.4234 27.1709C59.3245 27.764 59.2751 28.2088 59.2751 28.5054C59.2751 32.3603 61.7957 34.2878 66.8368 34.2878C72.0756 34.2878 78.0063 31.7673 84.629 26.7261C91.2519 21.685 94.563 16.6933 94.563 11.751C94.563 6.90755 90.4606 4.48585 82.2567 4.48585C80.5764 4.48585 78.9454 4.58473 77.3639 4.78239C68.8632 5.672 59.1762 9.27984 48.3033 15.606C37.4303 21.8333 28.3859 29.1478 21.1702 37.5497C13.1637 47.0389 9.16042 56.1324 9.16042 64.8311C9.16042 70.2679 10.989 74.4194 14.6463 77.2857C17.9082 79.8554 22.3563 81.1407 27.9905 81.1407C45.9804 81.1407 63.4266 74.1229 80.3292 60.0865C80.7246 59.79 81.12 59.6417 81.5154 59.6417C82.7015 59.6417 83.2946 60.284 83.2946 61.5692C83.2946 62.0632 83.0969 62.508 82.7015 62.9036C75.4858 69.5266 66.9357 75.1608 57.0511 79.8062C46.1781 84.9465 36.3429 87.5162 27.5457 87.5162C20.3299 87.5162 14.4981 86.0335 10.05 83.0681C4.81121 79.6088 2.1918 74.4686 2.1918 67.6482C2.1918 59.5426 5.50313 50.6962 12.1258 41.1082C19.9346 29.7409 30.0662 20.3012 42.5208 12.7889C55.8649 4.58473 69.0114 0.482605 81.9602 0.482605C93.1294 0.482605 98.7145 4.33759 98.7145 12.0475ZM118.527 83.9578C118.527 84.5508 118.378 84.8474 118.082 84.8474C117.983 84.8474 117.538 84.6 116.748 84.106C115.957 83.6121 114.523 83.3647 112.448 83.3647C111.459 83.3647 110.52 83.4138 109.631 83.513C105.875 98.3398 101.179 109.856 95.5452 118.06C84.8698 133.677 73.4533 141.486 61.2953 141.486C56.5507 141.486 52.5969 140.102 49.4338 137.334C46.1719 134.566 44.5409 130.86 44.5409 126.214C44.5409 115.638 52.1026 105.506 67.226 95.8192C79.8783 87.6153 92.1841 82.5742 104.145 80.6959C105.528 74.5677 107.11 65.4734 108.889 53.4145C107.703 56.2807 105.578 60.0865 102.514 64.8311C99.4493 69.4766 96.8304 72.9367 94.6555 75.2099C92.0858 77.8787 89.6636 79.2132 87.3904 79.2132C84.2276 79.2132 82.6459 76.4452 82.6459 70.9101C82.6459 67.7473 83.6345 63.9415 85.6112 59.4935C87.8844 54.3532 90.4049 51.7835 93.1729 51.7835C94.5564 51.7835 95.2486 52.1792 95.2486 52.9697C95.2486 53.0688 94.0133 55.3419 91.5419 59.79C89.0705 64.1389 87.8352 67.5 87.8352 69.8723C87.8352 73.035 88.7248 74.6168 90.504 74.6168C93.5685 74.6168 100.241 64.6829 110.52 44.8149C110.718 43.3322 111.954 42.5909 114.227 42.5909C116.006 42.5909 116.896 42.9863 116.896 43.777C116.896 45.062 116.254 49.2629 114.968 56.3798C113.486 64.782 111.855 72.8376 110.075 80.5476H110.669C115.907 80.3502 118.527 81.4863 118.527 83.9578ZM103.996 83.3647C97.4726 84.4517 89.7135 87.2688 80.7184 91.816C71.7235 96.3632 64.8537 100.91 60.1091 105.457C52.5969 112.574 48.8407 119.641 48.8407 126.659C48.8407 130.514 50.0763 133.579 52.5474 135.852C54.9197 138.224 58.0828 139.41 62.0366 139.41C68.0662 139.41 74.0463 136.84 79.9771 131.7C84.7216 127.648 88.9222 122.458 92.5798 116.132C97.8183 107.236 101.624 96.3132 103.996 83.3647ZM170.927 62.9036C170.927 63.5958 170.63 64.4355 170.037 65.4242C163.316 76.5935 156.347 82.1785 149.131 82.1785C143.497 82.1785 140.68 78.6201 140.68 71.5032C140.68 65.1768 142.114 59.5926 144.98 54.7489C138.06 60.9761 130.994 69.5757 123.778 80.5476C123.185 81.4372 122.74 81.882 122.443 81.882C121.554 81.882 121.109 80.9924 121.109 79.2132C121.109 78.7192 121.208 78.3236 121.405 78.027C123.481 72.9859 125.656 65.8199 127.929 56.5281C128.226 54.9463 128.72 52.624 129.412 49.5595C129.708 48.8675 130.401 48.1757 131.488 47.4837C132.575 46.7918 133.563 46.4458 134.453 46.4458C135.145 46.4458 135.491 46.7424 135.491 47.3354C135.491 48.3239 133.168 55.8359 128.522 69.8723C129.708 68.2905 133.415 64.0898 139.642 57.2694C141.718 54.8971 144.783 51.5364 148.835 47.1872C149.625 46.4952 150.417 46.1493 151.207 46.1493C153.48 46.1493 154.617 47.286 154.617 49.5595C154.617 50.0537 154.42 50.6467 154.024 51.3387C148.489 60.4322 145.721 67.6482 145.721 72.9859C145.721 76.7418 147.501 78.6201 151.059 78.6201C153.827 78.6201 156.792 77.1866 159.955 74.3203C162.031 72.5411 164.354 69.8723 166.924 66.3138C168.999 63.4476 170.186 62.014 170.482 62.014C170.779 62.014 170.927 62.3106 170.927 62.9036ZM200.332 64.5346C200.332 64.732 200.232 65.0285 200.035 65.4242C197.564 69.2792 193.857 72.8376 188.915 76.0995C183.676 79.5589 178.882 81.2889 174.533 81.2889C168.306 81.2889 165.192 77.3848 165.192 69.5757C165.192 64.4355 167.416 58.8013 171.864 52.6731C176.609 46.1493 181.501 42.8874 186.543 42.8874C187.531 42.8874 188.371 43.3322 189.063 44.2218C189.854 45.1114 190.249 46.0504 190.249 47.0389C190.249 50.1032 187.926 53.8101 183.281 58.159C179.129 62.014 175.323 64.5837 171.864 65.869C171.172 68.3404 170.826 70.4162 170.826 72.0963C170.826 76.1487 172.655 78.1753 176.312 78.1753C179.771 78.1753 183.676 76.7418 188.025 73.8755C191.781 71.4041 194.994 68.587 197.663 65.4242C198.355 64.4355 199.046 63.9415 199.738 63.9415C200.134 63.9415 200.332 64.1389 200.332 64.5346ZM185.801 48.8181C185.801 47.632 185.208 47.0389 184.022 47.0389C182.539 47.0389 180.364 49.3123 177.498 53.8593C175.027 57.7142 173.495 60.7288 172.902 62.9036C175.472 61.8166 178.14 59.8891 180.908 57.1212C184.17 53.9584 185.801 51.1904 185.801 48.8181ZM249.575 62.9036C249.575 63.5958 249.279 64.4355 248.686 65.4242C246.115 69.6748 241.866 73.9247 235.935 78.1753C229.608 82.9199 224.271 85.2922 219.922 85.2922C219.032 85.2922 217.698 85.243 215.919 85.1439C214.238 85.1439 212.953 85.1439 212.064 85.1439C211.668 85.1439 210.185 84.7982 207.616 84.106C204.551 92.0134 200.4 100.316 195.161 109.015C187.748 121.074 181.718 127.104 177.072 127.104C174.601 127.104 173.366 125.276 173.366 121.618C173.366 116.774 177.814 107.78 186.71 94.6331C193.035 85.9344 199.411 77.1866 205.836 68.3896V67.5C205.836 63.9415 205.786 60.8279 205.688 58.159C201.931 64.2872 199.559 67.3517 198.571 67.3517C197.978 67.3517 197.682 67.006 197.682 66.3138C197.682 65.9182 197.83 65.5233 198.126 65.1277C202.475 58.9995 204.65 53.5136 204.65 48.6699C204.65 47.6814 204.354 46.8906 203.761 46.2976C203.266 45.6056 203.019 45.062 203.019 44.6666C203.019 44.2712 204.551 44.0735 207.616 44.0735C210.976 44.0735 212.657 47.4343 212.657 54.1558C212.657 55.1445 212.558 56.6272 212.36 58.6038C212.261 60.4822 212.212 61.8658 212.212 62.7554C214.979 57.7142 218.043 53.0688 221.404 48.8181C226.544 42.492 230.844 39.3289 234.304 39.3289C237.467 39.3289 239.048 41.6518 239.048 46.2976C239.048 52.1292 236.973 58.9004 232.821 66.6103C228.768 74.3203 224.32 79.7071 219.477 82.7716C228.077 82.5742 237.615 75.9021 248.093 62.7554C248.488 62.2614 248.784 62.014 248.982 62.014C249.377 62.014 249.575 62.3106 249.575 62.9036ZM232.525 49.4112C232.525 46.347 231.684 44.8149 230.004 44.8149C229.509 44.8149 229.015 44.9137 228.521 45.1114C224.963 46.693 221.206 51.2893 217.253 58.9004C214.288 64.5346 211.915 70.3171 210.136 76.2478C211.124 77.7305 212.854 79.6088 215.326 81.882C219.674 80.0037 223.678 75.309 227.335 67.7965C230.795 60.6796 232.525 54.5514 232.525 49.4112ZM204.502 76.3961C204.403 76.297 204.304 76.2478 204.205 76.2478C203.81 76.2478 203.266 76.7418 202.574 77.7305C200.202 81.2889 196.644 86.5275 191.899 93.4469C189.823 96.4123 187.204 100.91 184.041 106.939C180.383 113.957 178.555 118.504 178.555 120.58C178.555 121.47 178.851 121.914 179.445 121.914C183.793 121.914 189.773 114.798 197.385 100.564C199.362 96.808 201.487 90.3333 203.761 81.1407C203.661 80.6467 203.612 80.1519 203.612 79.658C203.612 78.4718 203.909 77.3848 204.502 76.3961Z" fill="#EDCAB9"/>
</g>
<defs>
<linearGradient id="paint0_linear" x1="125.884" y1="0.482605" x2="126" y2="162.372" gradientUnits="userSpaceOnUse">
<stop offset="0.423351" stop-color="white"/>
<stop offset="0.676601" stop-color="white" stop-opacity="0"/>
</linearGradient>
</defs>
</svg>
