<svg width="767" height="86" viewBox="0 0 767 86" fill="none" xmlns="http://www.w3.org/2000/svg">
<path d="M56.6 12.91C56.6 16.81 54.08 21.25 49.04 26.23C46.4 28.81 42.17 32.2 36.35 36.4H37.34C42.68 36.28 45.35 38.32 45.35 42.52C45.35 43.42 45.2 44.41 44.9 45.49H45.62C50.6 45.43 53.3 46.03 53.72 47.29C53.66 47.77 53.36 48.01 52.82 48.01C52.4 48.01 51.86 47.89 51.2 47.65C50.54 47.41 50.09 47.29 49.85 47.29C49.61 47.23 48.89 47.2 47.69 47.2C46.55 47.2 45.44 47.23 44.36 47.29C43.88 48.49 43.25 49.72 42.47 50.98C35.51 62.98 27.29 71.98 17.81 77.98C13.01 81.1 8.99 82.66 5.75 82.66C1.97 82.66 0.0799994 80.68 0.0799994 76.72C0.0799994 74.68 0.649999 72.43 1.79 69.97C5.03 62.83 10.58 57.01 18.44 52.51C25.64 48.43 33.44 46.12 41.84 45.58C42.38 44.14 42.65 42.94 42.65 41.98C42.65 39.7 41.03 38.56 37.79 38.56C35.09 38.56 32.12 39.22 28.88 40.54C25.34 41.98 23.54 42.7 23.48 42.7C22.82 42.7 22.49 42.43 22.49 41.89C22.49 41.23 22.88 40.51 23.66 39.73C24.02 39.31 25.19 38.8 27.17 38.2C29.21 37.6 30.5 37.12 31.04 36.76C35.9 33.76 40.49 30.19 44.81 26.05C50.63 20.47 53.54 15.85 53.54 12.19C53.54 8.53 50.9 6.7 45.62 6.7C40.16 6.7 33.8 8.32 26.54 11.56C19.7 14.74 14.21 18.34 10.07 22.36C9.17 22.18 8.72 21.7 8.72 20.92C8.72 18.22 11.72 15.31 17.72 12.19C21.86 10.03 26.15 8.29 30.59 6.97C35.69 5.47 40.46 4.72 44.9 4.72C52.7 4.72 56.6 7.45 56.6 12.91ZM40.94 47.56C28.28 48.88 18.14 53.5 10.52 61.42C8 64.06 6.14 66.67 4.94 69.25C3.92 71.59 3.41 73.57 3.41 75.19C3.41 78.25 4.82 79.78 7.64 79.78C9.92 79.78 12.89 78.64 16.55 76.36C20.81 73.72 25.4 69.4 30.32 63.4C34.82 57.94 38.36 52.66 40.94 47.56ZM72.698 29.2C72.698 29.44 72.428 29.65 71.888 29.83C71.348 30.01 70.988 30.28 70.808 30.64C70.508 31.96 70.178 33.49 69.818 35.23C69.098 38.29 68.048 42.88 66.668 49H67.028C70.208 48.88 71.798 49.57 71.798 51.07C71.798 51.43 71.678 51.61 71.438 51.61C71.378 51.61 71.108 51.46 70.628 51.16C70.208 50.86 69.368 50.71 68.108 50.71C67.508 50.71 66.908 50.74 66.308 50.8C64.088 59.8 61.238 66.79 57.758 71.77C51.278 81.25 44.378 85.99 37.058 85.99C34.178 85.99 31.778 85.15 29.858 83.47C27.878 81.79 26.888 79.54 26.888 76.72C26.888 70.3 31.448 64.15 40.568 58.27C48.308 53.29 55.808 50.23 63.068 49.09C63.488 46.81 64.178 43.36 65.138 38.74C61.118 45.88 57.548 49.45 54.428 49.45C52.568 49.45 51.638 48.43 51.638 46.39C51.638 43.33 53.138 39.58 56.138 35.14C59.138 30.7 62.048 28 64.868 27.04C65.948 26.62 66.938 26.41 67.838 26.41C68.678 26.41 69.698 26.71 70.898 27.31C72.098 27.85 72.698 28.48 72.698 29.2ZM68.468 29.47C68.228 29.41 67.958 29.38 67.658 29.38C65.258 29.38 62.768 30.91 60.188 33.97C56.528 38.41 54.698 42.04 54.698 44.86C54.698 46.12 55.118 46.75 55.958 46.75C57.278 46.75 58.988 45.37 61.088 42.61C64.028 38.89 66.488 34.51 68.468 29.47ZM62.978 50.71C59.018 51.37 54.308 53.08 48.848 55.84C43.388 58.6 39.188 61.36 36.248 64.12C31.748 68.44 29.498 72.73 29.498 76.99C29.498 79.33 30.248 81.19 31.748 82.57C33.188 84.01 35.078 84.73 37.418 84.73C41.138 84.73 44.798 83.17 48.398 80.05C51.278 77.59 53.828 74.44 56.048 70.6C59.228 65.2 61.538 58.57 62.978 50.71ZM96.9727 39.28C96.9727 39.4 96.9127 39.58 96.7927 39.82C95.2927 42.16 93.0427 44.32 90.0427 46.3C86.8627 48.4 83.9527 49.45 81.3127 49.45C77.5327 49.45 75.6427 47.08 75.6427 42.34C75.6427 39.22 76.9927 35.8 79.6927 32.08C82.5727 28.12 85.5427 26.14 88.6027 26.14C89.2027 26.14 89.7127 26.41 90.1327 26.95C90.6127 27.49 90.8527 28.06 90.8527 28.66C90.8527 30.52 89.4427 32.77 86.6227 35.41C84.1027 37.75 81.7927 39.31 79.6927 40.09C79.2727 41.59 79.0627 42.85 79.0627 43.87C79.0627 46.33 80.1727 47.56 82.3927 47.56C84.4927 47.56 86.8627 46.69 89.5027 44.95C91.7827 43.45 93.7327 41.74 95.3527 39.82C95.7727 39.22 96.1927 38.92 96.6127 38.92C96.8527 38.92 96.9727 39.04 96.9727 39.28ZM88.1527 29.74C88.1527 29.02 87.7927 28.66 87.0727 28.66C86.1727 28.66 84.8527 30.04 83.1127 32.8C81.6127 35.14 80.6827 36.97 80.3227 38.29C81.8827 37.63 83.5027 36.46 85.1827 34.78C87.1627 32.86 88.1527 31.18 88.1527 29.74ZM117.594 38.38C117.594 38.62 117.414 38.95 117.054 39.37C114.954 42.43 112.044 45.22 108.324 47.74C106.164 49.12 103.884 49.81 101.484 49.81C97.044 49.81 94.824 47.44 94.824 42.7C94.824 39.76 96.444 36.52 99.684 32.98C102.984 29.44 106.074 27.67 108.954 27.67C110.874 27.67 111.834 28.42 111.834 29.92C111.834 30.52 111.384 31.57 110.484 33.07C109.644 34.51 108.954 35.23 108.414 35.23C108.174 35.23 108.054 35.08 108.054 34.78C108.054 34.54 108.144 34.15 108.324 33.61C108.564 33.07 108.684 32.65 108.684 32.35C108.684 31.09 107.904 30.46 106.344 30.46C104.184 30.46 102.234 31.87 100.494 34.69C98.874 37.27 98.064 39.7 98.064 41.98C98.064 45.7 99.684 47.56 102.924 47.56C107.004 47.56 111.264 44.77 115.704 39.19C116.304 38.47 116.814 38.11 117.234 38.11C117.474 38.11 117.594 38.2 117.594 38.38ZM121.169 34.42C120.149 36.46 119.219 38.56 118.379 40.72C117.539 42.88 117.119 44.53 117.119 45.67C117.119 47.77 118.109 48.82 120.089 48.82C121.349 48.82 122.759 48.31 124.319 47.29C125.939 46.21 127.349 44.98 128.549 43.6C126.989 43.72 125.669 43.45 124.589 42.79C123.569 42.13 123.029 40.84 122.969 38.92C122.849 37.84 123.059 36.82 123.599 35.86C124.139 34.84 124.829 34 125.669 33.34C126.569 32.62 127.529 32.11 128.549 31.81C129.629 31.51 130.589 31.51 131.429 31.81C132.329 32.05 133.049 32.65 133.589 33.61C134.129 34.57 134.339 35.95 134.219 37.75C134.159 38.59 133.979 39.43 133.679 40.27C135.059 39.61 136.379 38.83 137.639 37.93C138.899 36.97 139.979 35.98 140.879 34.96L142.049 35.23C141.809 35.83 141.359 36.49 140.699 37.21C140.099 37.87 139.349 38.53 138.449 39.19C137.609 39.85 136.679 40.48 135.659 41.08C134.639 41.68 133.589 42.19 132.509 42.61C131.789 43.69 130.919 44.68 129.899 45.58C128.879 46.42 127.769 47.17 126.569 47.83C125.369 48.49 124.109 49.03 122.789 49.45C121.529 49.87 120.299 50.14 119.099 50.26C115.619 50.62 113.879 48.88 113.879 45.04C113.879 43.42 114.179 41.62 114.779 39.64C115.379 37.66 116.129 35.68 117.029 33.7C117.989 31.66 119.009 29.74 120.089 27.94C121.169 26.08 122.189 24.52 123.149 23.26C123.389 22.96 123.719 22.84 124.139 22.9C124.559 22.96 124.979 23.14 125.399 23.44C125.819 23.68 126.149 24.01 126.389 24.43C126.689 24.79 126.839 25.12 126.839 25.42C126.839 25.78 126.719 26.11 126.479 26.41C126.299 26.71 125.939 27.25 125.399 28.03C124.919 28.75 124.379 29.56 123.779 30.46C123.239 31.3 122.699 32.11 122.159 32.89C121.679 33.67 121.349 34.18 121.169 34.42ZM130.709 40.54C131.369 39.22 131.639 38.17 131.519 37.39C131.459 36.61 131.159 36.04 130.619 35.68C130.079 35.26 129.419 35.08 128.639 35.14C127.859 35.2 127.139 35.44 126.479 35.86C125.819 36.22 125.309 36.76 124.949 37.48C124.589 38.14 124.589 38.95 124.949 39.91C125.249 40.87 125.849 41.47 126.749 41.71C127.709 41.95 128.819 41.92 130.079 41.62C130.199 41.44 130.289 41.26 130.349 41.08C130.469 40.9 130.589 40.72 130.709 40.54ZM183.905 38.29C183.905 38.71 183.725 39.22 183.365 39.82C181.805 42.4 179.225 44.98 175.625 47.56C171.785 50.44 168.545 51.88 165.905 51.88C165.365 51.88 164.555 51.85 163.475 51.79C162.455 51.79 161.675 51.79 161.135 51.79C160.895 51.79 159.995 51.58 158.435 51.16C156.575 55.96 154.055 61 150.875 66.28C146.375 73.6 142.715 77.26 139.895 77.26C138.395 77.26 137.645 76.15 137.645 73.93C137.645 70.99 140.345 65.53 145.745 57.55C149.585 52.27 153.455 46.96 157.355 41.62V41.08C157.355 38.92 157.325 37.03 157.265 35.41C154.985 39.13 153.545 40.99 152.945 40.99C152.585 40.99 152.405 40.78 152.405 40.36C152.405 40.12 152.495 39.88 152.675 39.64C155.315 35.92 156.635 32.59 156.635 29.65C156.635 29.05 156.455 28.57 156.095 28.21C155.795 27.79 155.645 27.46 155.645 27.22C155.645 26.98 156.575 26.86 158.435 26.86C160.475 26.86 161.495 28.9 161.495 32.98C161.495 33.58 161.435 34.48 161.315 35.68C161.255 36.82 161.225 37.66 161.225 38.2C162.905 35.14 164.765 32.32 166.805 29.74C169.925 25.9 172.535 23.98 174.635 23.98C176.555 23.98 177.515 25.39 177.515 28.21C177.515 31.75 176.255 35.86 173.735 40.54C171.275 45.22 168.575 48.49 165.635 50.35C170.855 50.23 176.645 46.18 183.005 38.2C183.245 37.9 183.425 37.75 183.545 37.75C183.785 37.75 183.905 37.93 183.905 38.29ZM173.555 30.1C173.555 28.24 173.045 27.31 172.025 27.31C171.725 27.31 171.425 27.37 171.125 27.49C168.965 28.45 166.685 31.24 164.285 35.86C162.485 39.28 161.045 42.79 159.965 46.39C160.565 47.29 161.615 48.43 163.115 49.81C165.755 48.67 168.185 45.82 170.405 41.26C172.505 36.94 173.555 33.22 173.555 30.1ZM156.545 46.48C156.485 46.42 156.425 46.39 156.365 46.39C156.125 46.39 155.795 46.69 155.375 47.29C153.935 49.45 151.775 52.63 148.895 56.83C147.635 58.63 146.045 61.36 144.125 65.02C141.905 69.28 140.795 72.04 140.795 73.3C140.795 73.84 140.975 74.11 141.335 74.11C143.975 74.11 147.605 69.79 152.225 61.15C153.425 58.87 154.715 54.94 156.095 49.36C156.035 49.06 156.005 48.76 156.005 48.46C156.005 47.74 156.185 47.08 156.545 46.48ZM204.258 39.28C204.258 39.4 204.198 39.52 204.078 39.64C203.238 41.08 201.948 42.31 200.208 43.33C198.528 44.35 196.878 44.86 195.258 44.86C194.058 44.86 192.948 44.56 191.928 43.96C189.168 48.34 186.318 50.53 183.378 50.53C181.278 50.53 180.228 49.3 180.228 46.84C180.228 43.42 181.728 39.4 184.728 34.78C184.608 34.12 184.548 33.46 184.548 32.8C184.548 30.64 185.268 28.54 186.708 26.5C188.148 24.46 189.918 23.44 192.018 23.44C193.398 23.44 194.508 24.25 195.348 25.87C196.008 27.25 196.338 28.69 196.338 30.19C196.338 33.43 195.078 37.54 192.558 42.52C193.458 43.06 194.478 43.33 195.618 43.33C197.598 43.33 199.458 42.55 201.198 40.99C202.938 39.43 203.748 38.65 203.628 38.65C204.048 38.65 204.258 38.86 204.258 39.28ZM193.638 32.44C193.638 31.12 193.428 29.77 193.008 28.39C192.408 26.47 191.628 25.51 190.668 25.51C189.288 25.51 188.208 26.35 187.428 28.03C186.828 29.35 186.558 30.79 186.618 32.35C187.578 31.21 188.538 30.64 189.498 30.64C190.398 30.64 191.058 30.94 191.478 31.54C191.478 31.6 191.478 31.75 191.478 31.99C191.538 32.17 191.568 32.32 191.568 32.44C191.568 32.62 191.268 32.71 190.668 32.71C189.588 32.71 188.448 33.85 187.248 36.13C188.028 38.41 189.408 40.27 191.388 41.71C192.888 37.93 193.638 34.84 193.638 32.44ZM190.668 42.97C188.688 41.65 187.188 40.12 186.168 38.38C184.368 42.16 183.468 44.89 183.468 46.57C183.468 47.77 183.918 48.37 184.818 48.37C185.658 48.37 186.768 47.65 188.148 46.21C189.348 45.07 190.188 43.99 190.668 42.97ZM202.325 38.2C201.665 38.92 201.155 39.28 200.795 39.28C200.555 39.28 200.435 39.19 200.435 39.01C200.435 38.83 200.615 38.5 200.975 38.02C201.635 36.76 202.325 35.53 203.045 34.33C203.825 33.13 204.665 32.08 205.565 31.18C206.525 30.28 207.545 29.56 208.625 29.02C209.765 28.42 210.995 28.12 212.315 28.12C216.755 28.12 218.975 30.49 218.975 35.23C218.975 36.37 218.735 37.54 218.255 38.74L218.615 38.38C222.335 35.8 224.735 33.13 225.815 30.37C225.995 29.77 225.995 29.2 225.815 28.66C225.755 28.42 225.695 28.21 225.635 28.03C225.575 27.85 225.605 27.73 225.725 27.67C225.845 27.55 226.085 27.55 226.445 27.67C226.805 27.73 227.375 27.94 228.155 28.3C229.775 28.96 229.985 31.15 228.785 34.87C228.725 35.17 228.605 35.53 228.425 35.95C228.245 36.37 228.065 36.82 227.885 37.3C227.705 37.78 227.525 38.23 227.345 38.65C227.165 39.07 227.045 39.4 226.985 39.64C226.625 40.6 226.325 41.32 226.085 41.8C225.905 42.22 225.695 42.82 225.455 43.6C227.735 41.8 229.325 40.66 230.225 40.18C230.885 37.96 232.385 35.56 234.725 32.98C238.085 29.44 241.175 27.67 243.995 27.67C245.915 27.67 246.875 28.42 246.875 29.92C246.875 30.52 246.425 31.57 245.525 33.07C244.685 34.51 243.995 35.23 243.455 35.23C243.215 35.23 243.095 35.08 243.095 34.78C243.095 34.54 243.185 34.15 243.365 33.61C243.605 33.07 243.725 32.65 243.725 32.35C243.725 31.09 242.945 30.46 241.385 30.46C239.225 30.46 237.275 31.87 235.535 34.69C233.915 37.33 233.105 39.76 233.105 41.98C233.105 45.7 234.725 47.56 237.965 47.56C242.045 47.56 246.305 44.77 250.745 39.19C251.345 38.47 251.855 38.11 252.275 38.11C252.515 38.11 252.635 38.2 252.635 38.38C252.635 38.62 252.455 38.95 252.095 39.37C250.055 42.37 247.145 45.16 243.365 47.74C241.145 49.12 238.865 49.81 236.525 49.81C232.085 49.81 229.865 47.44 229.865 42.7C229.865 42.46 229.865 42.22 229.865 41.98C226.685 44.32 224.615 46.75 223.655 49.27C223.535 49.57 223.625 49.84 223.925 50.08C224.225 50.32 224.435 50.59 224.555 50.89C224.615 51.13 224.675 51.34 224.735 51.52C224.795 51.7 224.735 51.82 224.555 51.88C224.435 52 224.195 52 223.835 51.88C223.475 51.82 222.935 51.61 222.215 51.25C220.595 50.65 220.385 48.46 221.585 44.68C221.705 44.14 221.915 43.51 222.215 42.79C222.575 42.01 222.815 41.38 222.935 40.9C223.295 39.94 223.565 39.07 223.745 38.29C223.985 37.51 224.195 36.73 224.375 35.95C221.015 38.65 219.035 39.91 218.435 39.73C218.195 39.73 218.045 39.61 217.985 39.37C217.205 41.17 215.915 43.03 214.115 44.95C210.755 48.49 207.665 50.26 204.845 50.26C202.925 50.26 201.965 49.51 201.965 48.01C201.965 47.47 202.415 46.42 203.315 44.86C204.095 43.42 204.785 42.7 205.385 42.7C205.625 42.7 205.745 42.85 205.745 43.15C205.745 43.39 205.625 43.78 205.385 44.32C205.205 44.86 205.115 45.28 205.115 45.58C205.115 46.84 205.895 47.47 207.455 47.47C209.615 47.47 211.565 46.06 213.305 43.24C214.925 40.66 215.735 38.23 215.735 35.95C215.735 32.23 214.115 30.37 210.875 30.37C209.855 30.37 208.955 30.55 208.175 30.91C207.455 31.27 206.765 31.81 206.105 32.53C205.505 33.19 204.905 34 204.305 34.96C203.765 35.86 203.165 36.88 202.505 38.02L202.325 38.2ZM270.276 29.2C270.276 29.44 270.006 29.65 269.466 29.83C268.926 30.01 268.566 30.28 268.386 30.64C268.086 31.96 267.756 33.49 267.396 35.23C266.676 38.29 265.626 42.88 264.246 49H264.606C267.786 48.88 269.376 49.57 269.376 51.07C269.376 51.43 269.256 51.61 269.016 51.61C268.956 51.61 268.686 51.46 268.206 51.16C267.786 50.86 266.946 50.71 265.686 50.71C265.086 50.71 264.486 50.74 263.886 50.8C261.666 59.8 258.816 66.79 255.336 71.77C248.856 81.25 241.956 85.99 234.636 85.99C231.756 85.99 229.356 85.15 227.436 83.47C225.456 81.79 224.466 79.54 224.466 76.72C224.466 70.3 229.026 64.15 238.146 58.27C245.886 53.29 253.386 50.23 260.646 49.09C261.066 46.81 261.756 43.36 262.716 38.74C258.696 45.88 255.126 49.45 252.006 49.45C250.146 49.45 249.216 48.43 249.216 46.39C249.216 43.33 250.716 39.58 253.716 35.14C256.716 30.7 259.626 28 262.446 27.04C263.526 26.62 264.516 26.41 265.416 26.41C266.256 26.41 267.276 26.71 268.476 27.31C269.676 27.85 270.276 28.48 270.276 29.2ZM266.046 29.47C265.806 29.41 265.536 29.38 265.236 29.38C262.836 29.38 260.346 30.91 257.766 33.97C254.106 38.41 252.276 42.04 252.276 44.86C252.276 46.12 252.696 46.75 253.536 46.75C254.856 46.75 256.566 45.37 258.666 42.61C261.606 38.89 264.066 34.51 266.046 29.47ZM260.556 50.71C256.596 51.37 251.886 53.08 246.426 55.84C240.966 58.6 236.766 61.36 233.826 64.12C229.326 68.44 227.076 72.73 227.076 76.99C227.076 79.33 227.826 81.19 229.326 82.57C230.766 84.01 232.656 84.73 234.996 84.73C238.716 84.73 242.376 83.17 245.976 80.05C248.856 77.59 251.406 74.44 253.626 70.6C256.806 65.2 259.116 58.57 260.556 50.71ZM302.381 38.92C302.381 39.22 302.201 39.64 301.841 40.18C299.201 44.44 296.711 47.17 294.371 48.37C293.291 48.91 292.211 49.18 291.131 49.18C287.471 49.18 285.641 46.6 285.641 41.44C285.641 40.6 285.701 39.7 285.821 38.74C281.801 45.88 278.231 49.45 275.111 49.45C273.251 49.45 272.321 48.43 272.321 46.39C272.321 43.27 273.821 39.52 276.821 35.14C279.821 30.7 282.731 28 285.551 27.04C286.571 26.62 287.561 26.41 288.521 26.41C290.681 26.41 292.241 27.16 293.201 28.66C293.381 28.96 293.471 29.17 293.471 29.29C293.471 29.35 293.261 29.44 292.841 29.56C292.421 29.68 292.121 29.89 291.941 30.19C290.501 32.53 289.781 36.04 289.781 40.72C289.781 45.04 290.711 47.2 292.571 47.2C293.891 47.2 295.751 45.76 298.151 42.88C300.611 39.94 301.931 38.47 302.111 38.47C302.291 38.47 302.381 38.62 302.381 38.92ZM289.151 29.47C288.911 29.41 288.641 29.38 288.341 29.38C285.941 29.38 283.451 30.91 280.871 33.97C277.211 38.41 275.381 42.04 275.381 44.86C275.381 46.12 275.801 46.75 276.641 46.75C277.961 46.75 279.671 45.37 281.771 42.61C284.711 38.89 287.171 34.51 289.151 29.47ZM333.439 39.91C333.439 40.03 333.379 40.15 333.259 40.27C332.359 41.59 331.009 42.76 329.209 43.78C327.469 44.74 325.789 45.22 324.169 45.22C322.909 45.22 321.739 44.92 320.659 44.32C317.839 48.46 314.899 50.53 311.839 50.53C309.679 50.53 308.599 49.36 308.599 47.02C308.599 44.26 309.769 41.05 312.109 37.39C310.369 37.75 308.569 38.2 306.709 38.74C305.089 39.22 303.409 39.76 301.669 40.36C301.309 41.2 300.949 42.07 300.589 42.97C299.809 45.67 299.059 47.5 298.339 48.46C297.679 49.36 296.929 49.81 296.089 49.81C295.669 49.81 295.489 49.3 295.549 48.28C295.549 47.98 295.579 47.77 295.639 47.65C297.259 44.83 298.999 40.72 300.859 35.32C300.979 34.84 301.129 34.3 301.309 33.7C301.489 33.04 301.729 32.26 302.029 31.36C302.329 30.94 302.809 30.55 303.469 30.19C304.189 29.77 304.849 29.56 305.449 29.56C305.869 29.56 306.049 29.74 305.989 30.1C305.989 30.4 305.509 31.6 304.549 33.7C304.009 35.02 303.259 36.76 302.299 38.92C304.039 38.38 306.559 37.63 309.859 36.67C310.519 36.49 311.269 36.28 312.109 36.04C312.469 35.98 312.829 35.89 313.189 35.77L313.279 35.68C313.099 35.08 313.009 34.45 313.009 33.79C313.009 31.75 313.759 29.77 315.259 27.85C316.759 25.93 318.589 24.97 320.749 24.97C322.189 24.97 323.359 25.75 324.259 27.31C324.919 28.57 325.249 29.92 325.249 31.36C325.249 34.42 323.959 38.29 321.379 42.97C322.279 43.51 323.329 43.78 324.529 43.78C326.569 43.78 328.489 43.03 330.289 41.53C332.089 40.03 332.929 39.28 332.809 39.28C333.229 39.28 333.439 39.49 333.439 39.91ZM322.459 33.43C322.459 32.23 322.249 30.97 321.829 29.65C321.169 27.85 320.359 26.95 319.399 26.95C317.959 26.95 316.849 27.73 316.069 29.29C315.409 30.55 315.109 31.9 315.169 33.34C316.189 32.32 317.179 31.81 318.139 31.81C319.099 31.81 319.789 32.08 320.209 32.62V33.07C320.269 33.25 320.299 33.37 320.299 33.43C320.299 33.61 319.999 33.7 319.399 33.7C318.259 33.7 317.059 34.78 315.799 36.94C316.639 39.1 318.079 40.87 320.119 42.25C321.679 38.65 322.459 35.71 322.459 33.43ZM319.399 43.42C317.359 42.16 315.799 40.72 314.719 39.1C312.859 42.64 311.929 45.19 311.929 46.75C311.929 47.89 312.409 48.46 313.369 48.46C314.209 48.46 315.349 47.8 316.789 46.48C318.049 45.4 318.919 44.38 319.399 43.42ZM367.359 39.1C367.359 39.34 367.299 39.52 367.179 39.64C365.679 41.74 363.999 43.69 362.139 45.49C359.559 47.89 357.399 49.09 355.659 49.09C352.839 49.09 351.429 45.97 351.429 39.73C351.429 38.77 351.459 37.69 351.519 36.49C349.359 38.41 346.929 41.86 344.229 46.84C343.329 48.52 342.339 49.36 341.259 49.36C340.899 49.36 340.629 49.24 340.449 49C340.269 48.34 340.179 47.5 340.179 46.48C340.179 44.74 340.569 41.56 341.349 36.94C341.769 34.6 341.979 33.1 341.979 32.44C341.979 31.96 341.889 31.72 341.709 31.72C340.689 32.62 339.039 34.57 336.759 37.57C334.299 40.81 331.659 44.62 328.839 49C328.479 49.54 328.179 49.81 327.939 49.81C327.459 49.81 327.219 49.27 327.219 48.19C327.219 47.89 327.249 47.65 327.309 47.47C328.689 44.23 330.099 39.67 331.539 33.79C331.659 32.95 331.899 31.75 332.259 30.19C332.379 29.77 332.769 29.35 333.429 28.93C334.149 28.51 334.749 28.3 335.229 28.3C335.649 28.3 335.859 28.48 335.859 28.84C335.859 29.44 334.449 34 331.629 42.52C333.789 39.64 336.009 36.67 338.289 33.61C339.009 32.65 340.089 31.21 341.529 29.29C342.429 28.21 343.359 27.67 344.319 27.67C345.279 27.67 345.759 28.21 345.759 29.29C345.759 30.07 345.549 31.63 345.129 33.97C344.709 36.25 344.229 39.61 343.689 44.05C345.369 41.65 347.979 38.14 351.519 33.52C352.479 32.38 353.439 31.81 354.399 31.81C355.299 31.81 355.749 32.38 355.749 33.52C355.749 34.48 355.599 35.92 355.299 37.84C354.999 39.7 354.849 41.11 354.849 42.07C354.849 45.19 355.659 46.75 357.279 46.75C359.559 46.75 362.469 44.23 366.009 39.19C366.369 38.59 366.669 38.29 366.909 38.29C367.209 38.29 367.359 38.56 367.359 39.1ZM358.269 22.36C350.709 20.56 345.159 20.65 341.619 22.63C340.959 22.99 340.419 23.56 339.999 24.34C339.819 24.76 339.729 25.33 339.729 26.05C339.729 26.77 339.639 27.31 339.459 27.67L339.099 27.94C338.499 28.36 338.229 27.94 338.289 26.68C338.409 25.36 338.709 24.25 339.189 23.35C339.789 21.97 340.809 20.92 342.249 20.2C344.889 18.64 348.369 18.04 352.689 18.4C353.769 18.4 357.399 18.91 363.579 19.93C367.359 20.59 369.849 20.59 371.049 19.93C371.769 19.51 372.279 18.97 372.579 18.31C372.939 17.53 372.999 16.81 372.759 16.15C372.579 15.49 372.609 14.92 372.849 14.44C372.969 14.38 373.029 14.35 373.029 14.35C373.509 14.05 373.719 14.65 373.659 16.15C373.659 17.65 373.479 18.76 373.119 19.48C372.219 21.22 371.259 22.42 370.239 23.08C368.739 23.92 366.369 24.07 363.129 23.53C362.769 23.35 362.049 23.2 360.969 23.08C360.489 23.08 359.589 22.84 358.269 22.36ZM387.594 38.38C387.594 38.62 387.414 38.95 387.054 39.37C384.954 42.43 382.044 45.22 378.324 47.74C376.164 49.12 373.884 49.81 371.484 49.81C367.044 49.81 364.824 47.44 364.824 42.7C364.824 39.76 366.444 36.52 369.684 32.98C372.984 29.44 376.074 27.67 378.954 27.67C380.874 27.67 381.834 28.42 381.834 29.92C381.834 30.52 381.384 31.57 380.484 33.07C379.644 34.51 378.954 35.23 378.414 35.23C378.174 35.23 378.054 35.08 378.054 34.78C378.054 34.54 378.144 34.15 378.324 33.61C378.564 33.07 378.684 32.65 378.684 32.35C378.684 31.09 377.904 30.46 376.344 30.46C374.184 30.46 372.234 31.87 370.494 34.69C368.874 37.27 368.064 39.7 368.064 41.98C368.064 45.7 369.684 47.56 372.924 47.56C377.004 47.56 381.264 44.77 385.704 39.19C386.304 38.47 386.814 38.11 387.234 38.11C387.474 38.11 387.594 38.2 387.594 38.38ZM408.089 34.78C409.409 34.9 410.069 35.59 410.069 36.85C410.069 36.97 409.949 37.33 409.709 37.93C409.049 39.31 408.419 40.51 407.819 41.53C407.279 42.55 407.009 43.63 407.009 44.77C407.009 47.05 408.089 48.19 410.249 48.19C411.929 48.19 413.729 47.32 415.649 45.58C416.969 44.44 418.379 42.82 419.879 40.72C421.139 38.98 421.859 38.11 422.039 38.11C422.219 38.11 422.309 38.29 422.309 38.65C422.309 39.07 422.129 39.58 421.769 40.18C417.689 46.96 413.459 50.35 409.079 50.35C405.659 50.35 403.949 48.19 403.949 43.87C403.949 43.45 403.949 43.06 403.949 42.7C403.949 42.28 403.979 41.89 404.039 41.53C404.279 40.69 404.609 39.79 405.029 38.83C404.669 38.95 404.309 39.04 403.949 39.1C403.589 39.16 403.259 39.19 402.959 39.19C401.939 40.57 400.919 41.89 399.899 43.15C398.879 44.35 398.219 45.1 397.919 45.4C396.239 47.02 394.589 48.13 392.969 48.73C391.349 49.27 389.939 49.33 388.739 48.91C387.539 48.49 386.639 47.59 386.039 46.21C385.499 44.83 385.439 42.97 385.859 40.63C386.039 39.49 386.369 38.71 386.849 38.29C387.329 37.87 387.839 37.66 388.379 37.66C388.919 37.66 389.399 37.84 389.819 38.2C390.239 38.5 390.509 38.86 390.629 39.28C389.669 41.74 389.189 43.72 389.189 45.22C389.249 46.72 389.669 47.62 390.449 47.92C391.289 48.22 392.429 47.89 393.869 46.93C395.309 45.91 396.929 44.14 398.729 41.62C399.089 41.14 399.629 40.36 400.349 39.28C398.549 39.22 396.929 38.8 395.489 38.02C394.109 37.24 393.179 36.25 392.699 35.05C392.219 33.79 392.309 32.47 392.969 31.09C393.629 29.65 395.099 28.27 397.379 26.95C398.999 26.05 400.379 25.6 401.519 25.6C402.659 25.54 403.559 25.81 404.219 26.41C404.939 26.95 405.419 27.73 405.659 28.75C405.959 29.71 406.079 30.76 406.019 31.9C405.959 33.04 405.749 34.15 405.389 35.23C405.029 36.25 404.519 37.12 403.859 37.84C404.159 37.84 404.459 37.84 404.759 37.84C405.059 37.84 405.359 37.78 405.659 37.66C406.499 36.16 407.099 35.32 407.459 35.14C407.819 34.9 408.029 34.78 408.089 34.78ZM403.589 29.47C401.069 28.63 399.239 28.51 398.099 29.11C397.019 29.65 396.449 30.49 396.389 31.63C396.329 32.71 396.749 33.88 397.649 35.14C398.609 36.34 399.899 37.15 401.519 37.57C402.059 36.73 402.539 35.86 402.959 34.96C403.439 34.06 403.769 33.25 403.949 32.53C404.189 31.75 404.279 31.09 404.219 30.55C404.219 29.95 404.009 29.59 403.589 29.47ZM488.103 7.42C488.103 11.5 485.853 15.25 481.353 18.67C477.153 21.97 472.923 23.62 468.663 23.62C464.283 23.62 462.093 21.94 462.093 18.58C462.093 16.18 462.633 14.98 463.713 14.98C464.133 14.98 464.343 15.25 464.343 15.79C464.343 15.97 464.313 16.24 464.253 16.6C464.193 16.96 464.163 17.23 464.163 17.41C464.163 19.75 465.693 20.92 468.753 20.92C471.933 20.92 475.533 19.39 479.553 16.33C483.573 13.27 485.583 10.24 485.583 7.24C485.583 4.3 483.093 2.83 478.113 2.83C477.093 2.83 476.103 2.89 475.143 3.01C469.983 3.55 464.103 5.74 457.503 9.58C450.903 13.36 445.413 17.8 441.033 22.9C436.173 28.66 433.743 34.18 433.743 39.46C433.743 42.76 434.853 45.28 437.073 47.02C439.053 48.58 441.753 49.36 445.173 49.36C456.093 49.36 466.683 45.1 476.943 36.58C477.183 36.4 477.423 36.31 477.663 36.31C478.383 36.31 478.743 36.7 478.743 37.48C478.743 37.78 478.623 38.05 478.383 38.29C474.003 42.31 468.813 45.73 462.813 48.55C456.213 51.67 450.243 53.23 444.903 53.23C440.523 53.23 436.983 52.33 434.283 50.53C431.103 48.43 429.513 45.31 429.513 41.17C429.513 36.25 431.523 30.88 435.543 25.06C440.283 18.16 446.433 12.43 453.993 7.87C462.093 2.89 470.073 0.399998 477.933 0.399998C484.713 0.399998 488.103 2.74 488.103 7.42ZM500.129 51.07C500.129 51.43 500.039 51.61 499.859 51.61C499.799 51.61 499.529 51.46 499.049 51.16C498.569 50.86 497.699 50.71 496.439 50.71C495.839 50.71 495.269 50.74 494.729 50.8C492.449 59.8 489.599 66.79 486.179 71.77C479.699 81.25 472.769 85.99 465.389 85.99C462.509 85.99 460.109 85.15 458.189 83.47C456.209 81.79 455.219 79.54 455.219 76.72C455.219 70.3 459.809 64.15 468.989 58.27C476.669 53.29 484.139 50.23 491.399 49.09C492.239 45.37 493.199 39.85 494.279 32.53C493.559 34.27 492.269 36.58 490.409 39.46C488.549 42.28 486.959 44.38 485.639 45.76C484.079 47.38 482.609 48.19 481.229 48.19C479.309 48.19 478.349 46.51 478.349 43.15C478.349 41.23 478.949 38.92 480.149 36.22C481.529 33.1 483.059 31.54 484.739 31.54C485.579 31.54 485.999 31.78 485.999 32.26C485.999 32.32 485.249 33.7 483.749 36.4C482.249 39.04 481.499 41.08 481.499 42.52C481.499 44.44 482.039 45.4 483.119 45.4C484.979 45.4 489.029 39.37 495.269 27.31C495.389 26.41 496.139 25.96 497.519 25.96C498.599 25.96 499.139 26.2 499.139 26.68C499.139 27.46 498.749 30.01 497.969 34.33C497.069 39.43 496.079 44.32 494.999 49H495.359C498.539 48.88 500.129 49.57 500.129 51.07ZM491.309 50.71C487.349 51.37 482.639 53.08 477.179 55.84C471.719 58.6 467.549 61.36 464.669 64.12C460.109 68.44 457.829 72.73 457.829 76.99C457.829 79.33 458.579 81.19 460.079 82.57C461.519 84.01 463.439 84.73 465.839 84.73C469.499 84.73 473.129 83.17 476.729 80.05C479.609 77.59 482.159 74.44 484.379 70.6C487.559 65.2 489.869 58.57 491.309 50.71ZM531.936 38.29C531.936 38.71 531.756 39.22 531.396 39.82C527.316 46.6 523.086 49.99 518.706 49.99C515.286 49.99 513.576 47.83 513.576 43.51C513.576 39.67 514.446 36.28 516.186 33.34C511.986 37.12 507.696 42.34 503.316 49C502.956 49.54 502.686 49.81 502.506 49.81C501.966 49.81 501.696 49.27 501.696 48.19C501.696 47.89 501.756 47.65 501.876 47.47C503.136 44.41 504.456 40.06 505.836 34.42C506.016 33.46 506.316 32.05 506.736 30.19C506.916 29.77 507.336 29.35 507.996 28.93C508.656 28.51 509.256 28.3 509.796 28.3C510.216 28.3 510.426 28.48 510.426 28.84C510.426 29.44 509.016 34 506.196 42.52C506.916 41.56 509.166 39.01 512.946 34.87C514.206 33.43 516.066 31.39 518.526 28.75C519.006 28.33 519.486 28.12 519.966 28.12C521.346 28.12 522.036 28.81 522.036 30.19C522.036 30.49 521.916 30.85 521.676 31.27C518.316 36.79 516.636 41.17 516.636 44.41C516.636 46.69 517.716 47.83 519.876 47.83C521.556 47.83 523.356 46.96 525.276 45.22C526.536 44.14 527.946 42.52 529.506 40.36C530.766 38.62 531.486 37.75 531.666 37.75C531.846 37.75 531.936 37.93 531.936 38.29ZM549.785 39.28C549.785 39.4 549.725 39.58 549.605 39.82C548.105 42.16 545.855 44.32 542.855 46.3C539.675 48.4 536.765 49.45 534.125 49.45C530.345 49.45 528.455 47.08 528.455 42.34C528.455 39.22 529.805 35.8 532.505 32.08C535.385 28.12 538.355 26.14 541.415 26.14C542.015 26.14 542.525 26.41 542.945 26.95C543.425 27.49 543.665 28.06 543.665 28.66C543.665 30.52 542.255 32.77 539.435 35.41C536.915 37.75 534.605 39.31 532.505 40.09C532.085 41.59 531.875 42.85 531.875 43.87C531.875 46.33 532.985 47.56 535.205 47.56C537.305 47.56 539.675 46.69 542.315 44.95C544.595 43.45 546.545 41.74 548.165 39.82C548.585 39.22 549.005 38.92 549.425 38.92C549.665 38.92 549.785 39.04 549.785 39.28ZM540.965 29.74C540.965 29.02 540.605 28.66 539.885 28.66C538.985 28.66 537.665 30.04 535.925 32.8C534.425 35.14 533.495 36.97 533.135 38.29C534.695 37.63 536.315 36.46 537.995 34.78C539.975 32.86 540.965 31.18 540.965 29.74ZM579.676 38.29C579.676 38.71 579.496 39.22 579.136 39.82C577.576 42.4 574.996 44.98 571.396 47.56C567.556 50.44 564.316 51.88 561.676 51.88C561.136 51.88 560.326 51.85 559.246 51.79C558.226 51.79 557.446 51.79 556.906 51.79C556.666 51.79 555.766 51.58 554.206 51.16C552.346 55.96 549.826 61 546.646 66.28C542.146 73.6 538.486 77.26 535.666 77.26C534.166 77.26 533.416 76.15 533.416 73.93C533.416 70.99 536.116 65.53 541.516 57.55C545.356 52.27 549.226 46.96 553.126 41.62V41.08C553.126 38.92 553.096 37.03 553.036 35.41C550.756 39.13 549.316 40.99 548.716 40.99C548.356 40.99 548.176 40.78 548.176 40.36C548.176 40.12 548.266 39.88 548.446 39.64C551.086 35.92 552.406 32.59 552.406 29.65C552.406 29.05 552.226 28.57 551.866 28.21C551.566 27.79 551.416 27.46 551.416 27.22C551.416 26.98 552.346 26.86 554.206 26.86C556.246 26.86 557.266 28.9 557.266 32.98C557.266 33.58 557.206 34.48 557.086 35.68C557.026 36.82 556.996 37.66 556.996 38.2C558.676 35.14 560.536 32.32 562.576 29.74C565.696 25.9 568.306 23.98 570.406 23.98C572.326 23.98 573.286 25.39 573.286 28.21C573.286 31.75 572.026 35.86 569.506 40.54C567.046 45.22 564.346 48.49 561.406 50.35C566.626 50.23 572.416 46.18 578.776 38.2C579.016 37.9 579.196 37.75 579.316 37.75C579.556 37.75 579.676 37.93 579.676 38.29ZM569.326 30.1C569.326 28.24 568.816 27.31 567.796 27.31C567.496 27.31 567.196 27.37 566.896 27.49C564.736 28.45 562.456 31.24 560.056 35.86C558.256 39.28 556.816 42.79 555.736 46.39C556.336 47.29 557.386 48.43 558.886 49.81C561.526 48.67 563.956 45.82 566.176 41.26C568.276 36.94 569.326 33.22 569.326 30.1ZM552.316 46.48C552.256 46.42 552.196 46.39 552.136 46.39C551.896 46.39 551.566 46.69 551.146 47.29C549.706 49.45 547.546 52.63 544.666 56.83C543.406 58.63 541.816 61.36 539.896 65.02C537.676 69.28 536.566 72.04 536.566 73.3C536.566 73.84 536.746 74.11 537.106 74.11C539.746 74.11 543.376 69.79 547.996 61.15C549.196 58.87 550.486 54.94 551.866 49.36C551.806 49.06 551.776 48.76 551.776 48.46C551.776 47.74 551.956 47.08 552.316 46.48ZM613.121 38.38C613.121 38.62 612.941 38.95 612.581 39.37C610.481 42.43 607.571 45.22 603.851 47.74C601.691 49.12 599.411 49.81 597.011 49.81C592.571 49.81 590.351 47.44 590.351 42.7C590.351 39.76 591.971 36.52 595.211 32.98C598.511 29.44 601.601 27.67 604.481 27.67C606.401 27.67 607.361 28.42 607.361 29.92C607.361 30.52 606.911 31.57 606.011 33.07C605.171 34.51 604.481 35.23 603.941 35.23C603.701 35.23 603.581 35.08 603.581 34.78C603.581 34.54 603.671 34.15 603.851 33.61C604.091 33.07 604.211 32.65 604.211 32.35C604.211 31.09 603.431 30.46 601.871 30.46C599.711 30.46 597.761 31.87 596.021 34.69C594.401 37.27 593.591 39.7 593.591 41.98C593.591 45.7 595.211 47.56 598.451 47.56C602.531 47.56 606.791 44.77 611.231 39.19C611.831 38.47 612.341 38.11 612.761 38.11C613.001 38.11 613.121 38.2 613.121 38.38ZM630.557 39.28C630.557 39.4 630.497 39.58 630.377 39.82C628.877 42.16 626.627 44.32 623.627 46.3C620.447 48.4 617.537 49.45 614.897 49.45C611.117 49.45 609.227 47.08 609.227 42.34C609.227 39.22 610.577 35.8 613.277 32.08C616.157 28.12 619.127 26.14 622.187 26.14C622.787 26.14 623.297 26.41 623.717 26.95C624.197 27.49 624.437 28.06 624.437 28.66C624.437 30.52 623.027 32.77 620.207 35.41C617.687 37.75 615.377 39.31 613.277 40.09C612.857 41.59 612.647 42.85 612.647 43.87C612.647 46.33 613.757 47.56 615.977 47.56C618.077 47.56 620.447 46.69 623.087 44.95C625.367 43.45 627.317 41.74 628.937 39.82C629.357 39.22 629.777 38.92 630.197 38.92C630.437 38.92 630.557 39.04 630.557 39.28ZM621.737 29.74C621.737 29.02 621.377 28.66 620.657 28.66C619.757 28.66 618.437 30.04 616.697 32.8C615.197 35.14 614.267 36.97 613.907 38.29C615.467 37.63 617.087 36.46 618.767 34.78C620.747 32.86 621.737 31.18 621.737 29.74ZM646.768 33.16C645.568 35.68 644.278 38.2 642.898 40.72C641.518 43.18 640.228 45.01 639.028 46.21C637.348 47.83 635.758 48.88 634.258 49.36C632.758 49.84 631.498 49.81 630.478 49.27C629.458 48.79 628.708 47.83 628.228 46.39C627.808 44.89 627.808 42.97 628.228 40.63C628.408 39.49 628.738 38.71 629.218 38.29C629.698 37.87 630.208 37.66 630.748 37.66C631.288 37.66 631.768 37.84 632.188 38.2C632.608 38.5 632.878 38.86 632.998 39.28C632.038 41.74 631.558 43.72 631.558 45.22C631.618 46.72 632.038 47.62 632.818 47.92C633.658 48.22 634.798 47.89 636.238 46.93C637.678 45.91 639.298 44.14 641.098 41.62C641.758 40.72 642.508 39.46 643.348 37.84C644.248 36.22 645.148 33.88 646.048 30.82C648.268 29.68 649.858 29.14 650.818 29.2C651.778 29.2 652.288 29.59 652.348 30.37C652.468 31.09 652.258 32.11 651.718 33.43C651.178 34.69 650.578 36.04 649.918 37.48C649.258 38.86 648.628 40.21 648.028 41.53C647.488 42.79 647.218 43.81 647.218 44.59C647.398 44.35 647.728 43.93 648.208 43.33C648.688 42.67 649.288 41.92 650.008 41.08C650.728 40.18 651.508 39.22 652.348 38.2C653.248 37.18 654.178 36.16 655.138 35.14C656.338 33.76 658.198 31.72 660.718 29.02C660.958 28.78 661.228 28.57 661.528 28.39C661.828 28.21 662.098 28.12 662.338 28.12C663.718 28.12 664.408 28.81 664.408 30.19C664.408 30.49 664.288 30.85 664.048 31.27C660.688 36.79 659.008 41.17 659.008 44.41C659.008 46.69 660.088 47.83 662.248 47.83C663.928 47.83 665.728 46.96 667.648 45.22C668.968 44.08 670.378 42.46 671.878 40.36C673.138 38.62 673.858 37.75 674.038 37.75C674.218 37.75 674.308 37.93 674.308 38.29C674.308 38.71 674.128 39.22 673.768 39.82C669.688 46.6 665.458 49.99 661.078 49.99C657.658 49.99 655.948 47.83 655.948 43.51C655.948 41.59 656.128 39.85 656.488 38.29C656.908 36.67 657.538 35.11 658.378 33.61C657.178 34.75 656.068 35.89 655.048 37.03C654.088 38.17 652.978 39.52 651.718 41.08C651.178 41.8 650.638 42.55 650.098 43.33C649.558 44.11 649.018 44.8 648.478 45.4C647.938 46 647.398 46.45 646.858 46.75C646.318 47.05 645.748 47.02 645.148 46.66C644.488 46.24 644.278 45.34 644.518 43.96C644.818 42.58 645.238 41.11 645.778 39.55C646.378 37.99 646.948 36.58 647.488 35.32C648.028 34.06 648.208 33.34 648.028 33.16C648.028 32.86 647.818 32.71 647.398 32.71C646.978 32.71 646.768 32.86 646.768 33.16ZM678.044 34.42C677.024 36.46 676.094 38.56 675.254 40.72C674.414 42.88 673.994 44.53 673.994 45.67C673.994 47.77 674.984 48.82 676.964 48.82C678.224 48.82 679.634 48.31 681.194 47.29C682.814 46.21 684.224 44.98 685.424 43.6C683.864 43.72 682.544 43.45 681.464 42.79C680.444 42.13 679.904 40.84 679.844 38.92C679.724 37.84 679.934 36.82 680.474 35.86C681.014 34.84 681.704 34 682.544 33.34C683.444 32.62 684.404 32.11 685.424 31.81C686.504 31.51 687.464 31.51 688.304 31.81C689.204 32.05 689.924 32.65 690.464 33.61C691.004 34.57 691.214 35.95 691.094 37.75C691.034 38.59 690.854 39.43 690.554 40.27C691.934 39.61 693.254 38.83 694.514 37.93C695.774 36.97 696.854 35.98 697.754 34.96L698.924 35.23C698.684 35.83 698.234 36.49 697.574 37.21C696.974 37.87 696.224 38.53 695.324 39.19C694.484 39.85 693.554 40.48 692.534 41.08C691.514 41.68 690.464 42.19 689.384 42.61C688.664 43.69 687.794 44.68 686.774 45.58C685.754 46.42 684.644 47.17 683.444 47.83C682.244 48.49 680.984 49.03 679.664 49.45C678.404 49.87 677.174 50.14 675.974 50.26C672.494 50.62 670.754 48.88 670.754 45.04C670.754 43.42 671.054 41.62 671.654 39.64C672.254 37.66 673.004 35.68 673.904 33.7C674.864 31.66 675.884 29.74 676.964 27.94C678.044 26.08 679.064 24.52 680.024 23.26C680.264 22.96 680.594 22.84 681.014 22.9C681.434 22.96 681.854 23.14 682.274 23.44C682.694 23.68 683.024 24.01 683.264 24.43C683.564 24.79 683.714 25.12 683.714 25.42C683.714 25.78 683.594 26.11 683.354 26.41C683.174 26.71 682.814 27.25 682.274 28.03C681.794 28.75 681.254 29.56 680.654 30.46C680.114 31.3 679.574 32.11 679.034 32.89C678.554 33.67 678.224 34.18 678.044 34.42ZM687.584 40.54C688.244 39.22 688.514 38.17 688.394 37.39C688.334 36.61 688.034 36.04 687.494 35.68C686.954 35.26 686.294 35.08 685.514 35.14C684.734 35.2 684.014 35.44 683.354 35.86C682.694 36.22 682.184 36.76 681.824 37.48C681.464 38.14 681.464 38.95 681.824 39.91C682.124 40.87 682.724 41.47 683.624 41.71C684.584 41.95 685.694 41.92 686.954 41.62C687.074 41.44 687.164 41.26 687.224 41.08C687.344 40.9 687.464 40.72 687.584 40.54ZM724.539 38.29C724.539 38.71 724.359 39.22 723.999 39.82C722.319 42.58 720.369 44.98 718.149 47.02C715.269 49.66 712.569 50.98 710.049 50.98C706.689 50.98 705.009 48.88 705.009 44.68C705.009 43.72 705.459 41.83 706.359 39.01C704.259 42.07 702.909 43.96 702.309 44.68C700.329 47.02 698.559 48.19 696.999 48.19C695.019 48.19 694.029 46.51 694.029 43.15C694.029 41.23 694.659 38.92 695.919 36.22C697.299 33.1 698.799 31.54 700.419 31.54C701.319 31.54 701.769 31.78 701.769 32.26C701.769 32.32 700.989 33.7 699.429 36.4C697.929 39.04 697.179 41.08 697.179 42.52C697.179 44.44 697.749 45.4 698.889 45.4C700.809 45.4 704.259 41.02 709.239 32.26C709.659 31.42 710.289 30.25 711.129 28.75C711.549 28.27 711.999 28.03 712.479 28.03C713.019 28.03 713.499 28.27 713.919 28.75C714.399 29.17 714.639 29.68 714.639 30.28C714.639 30.22 713.559 32.23 711.399 36.31C709.299 40.39 708.249 43.54 708.249 45.76C708.249 47.86 709.239 48.91 711.219 48.91C712.899 48.91 714.819 47.95 716.979 46.03C718.419 44.77 720.039 42.97 721.839 40.63C723.339 38.71 724.149 37.75 724.269 37.75C724.449 37.75 724.539 37.93 724.539 38.29ZM732.91 48.28C732.91 49.72 732.16 50.44 730.66 50.44C729.04 50.44 728.23 49.72 728.23 48.28C728.23 46.84 729.04 46.12 730.66 46.12C732.16 46.12 732.91 46.84 732.91 48.28ZM749.521 48.28C749.521 49.72 748.771 50.44 747.271 50.44C745.651 50.44 744.841 49.72 744.841 48.28C744.841 46.84 745.651 46.12 747.271 46.12C748.771 46.12 749.521 46.84 749.521 48.28ZM766.133 48.28C766.133 49.72 765.383 50.44 763.883 50.44C762.263 50.44 761.453 49.72 761.453 48.28C761.453 46.84 762.263 46.12 763.883 46.12C765.383 46.12 766.133 46.84 766.133 48.28Z" fill="#737373"/>
</svg>
